G04 #@! TF.FileFunction,Soldermask,Bot*
%FSLAX46Y46*%
G04 Gerber Fmt 4.6, Leading zero omitted, Abs format (unit mm)*
G04 Created by KiCad (PCBNEW 4.0.4-stable) date 06/12/17 16:56:40*
%MOMM*%
%LPD*%
G01*
G04 APERTURE LIST*
%ADD10C,0.150000*%
%ADD11O,2.000000X1.600000*%
%ADD12C,1.800000*%
%ADD13C,2.500000*%
%ADD14C,1.000000*%
%ADD15R,1.300000X1.300000*%
%ADD16C,1.300000*%
%ADD17O,1.600200X4.399280*%
%ADD18O,1.998980X3.401060*%
%ADD19O,3.401060X1.998980*%
%ADD20R,2.499360X2.499360*%
%ADD21C,2.499360*%
%ADD22R,1.727200X1.727200*%
%ADD23O,1.727200X1.727200*%
%ADD24C,1.998980*%
%ADD25O,2.499360X1.501140*%
%ADD26C,3.799840*%
%ADD27R,2.032000X2.032000*%
%ADD28C,2.032000*%
%ADD29R,1.500000X1.500000*%
%ADD30C,1.500000*%
%ADD31C,2.540000*%
%ADD32O,1.600000X2.300000*%
%ADD33O,2.300000X1.600000*%
G04 APERTURE END LIST*
D10*
D11*
X43180000Y45005000D03*
X43180000Y42505000D03*
X43180000Y40005000D03*
X43180000Y37505000D03*
X43180000Y35005000D03*
D12*
X24831000Y4069000D03*
X24831000Y6609000D03*
X30331000Y6609000D03*
X30331000Y4069000D03*
D13*
X27581000Y3439000D03*
X27581000Y7239000D03*
D14*
X22931000Y7789000D03*
D15*
X17105000Y8255000D03*
D16*
X12105000Y8255000D03*
D15*
X48260000Y32900000D03*
D16*
X48260000Y37900000D03*
D17*
X20320000Y40005000D03*
D18*
X14224000Y40005000D03*
D19*
X17018000Y35560000D03*
D20*
X11430000Y42545000D03*
D21*
X11430000Y37465000D03*
D22*
X36195000Y22860000D03*
D23*
X36195000Y20320000D03*
X33655000Y22860000D03*
X33655000Y20320000D03*
X31115000Y22860000D03*
X31115000Y20320000D03*
D24*
X20955000Y5080000D03*
X10795000Y5080000D03*
X45085000Y3175000D03*
X34925000Y3175000D03*
X45085000Y6350000D03*
X34925000Y6350000D03*
D25*
X18176000Y30400000D03*
X18176000Y32940000D03*
X18176000Y27860000D03*
D26*
X34940000Y30400000D03*
D16*
X14010000Y24130000D03*
D15*
X16510000Y24130000D03*
D16*
X14010000Y15240000D03*
D15*
X16510000Y15240000D03*
D27*
X8890000Y12700000D03*
D28*
X8890000Y17780000D03*
X8890000Y22860000D03*
X8890000Y27940000D03*
D29*
X6779000Y17320000D03*
D30*
X6779000Y19320000D03*
X6779000Y21320000D03*
X6779000Y23320000D03*
D31*
X33909000Y41783000D03*
X24511000Y41783000D03*
D32*
X21320000Y9780000D03*
X23860000Y9780000D03*
X26400000Y9780000D03*
X28940000Y9780000D03*
X31480000Y9780000D03*
X34020000Y9780000D03*
X36560000Y9780000D03*
X36560000Y17400000D03*
X34020000Y17400000D03*
X31480000Y17400000D03*
X28940000Y17400000D03*
X26400000Y17400000D03*
X23860000Y17400000D03*
X21320000Y17400000D03*
D33*
X41275000Y28575000D03*
X41275000Y26035000D03*
X41275000Y23495000D03*
X41275000Y20955000D03*
X41275000Y18415000D03*
X41275000Y15875000D03*
X41275000Y13335000D03*
X41275000Y10795000D03*
X48895000Y10795000D03*
X48895000Y13335000D03*
X48895000Y15875000D03*
X48895000Y18415000D03*
X48895000Y20955000D03*
X48895000Y23495000D03*
X48895000Y26035000D03*
X48895000Y28575000D03*
M02*
