G04 #@! TF.FileFunction,Profile,NP*
%FSLAX46Y46*%
G04 Gerber Fmt 4.6, Leading zero omitted, Abs format (unit mm)*
G04 Created by KiCad (PCBNEW 4.0.4-stable) date 06/12/17 16:56:40*
%MOMM*%
%LPD*%
G01*
G04 APERTURE LIST*
%ADD10C,0.150000*%
%ADD11C,0.100000*%
G04 APERTURE END LIST*
D10*
D11*
X49320300Y51151141D02*
X50070700Y50923526D01*
X50070700Y50923526D02*
X50762300Y50553882D01*
X50762300Y50553882D02*
X51368400Y50056430D01*
X51368400Y50056430D02*
X51865900Y49450290D01*
X51865900Y49450290D02*
X52235500Y48758750D01*
X52235500Y48758750D02*
X52463100Y48008360D01*
X52463100Y48008360D02*
X52540000Y47228000D01*
X52540000Y47228000D02*
X52540000Y5228000D01*
X52540000Y5228000D02*
X52463100Y4447700D01*
X52463100Y4447700D02*
X52235500Y3697300D01*
X52235500Y3697300D02*
X51865900Y3005700D01*
X51865900Y3005700D02*
X51368400Y2399600D01*
X51368400Y2399600D02*
X50762300Y1902100D01*
X50762300Y1902100D02*
X50070700Y1532500D01*
X50070700Y1532500D02*
X49320300Y1304900D01*
X49320300Y1304900D02*
X48540000Y1228000D01*
X48540000Y1228000D02*
X6540000Y1228000D01*
X6540000Y1228000D02*
X5759640Y1304900D01*
X5759640Y1304900D02*
X5009250Y1532500D01*
X5009250Y1532500D02*
X4317710Y1902100D01*
X4317710Y1902100D02*
X3711570Y2399600D01*
X3711570Y2399600D02*
X3214118Y3005700D01*
X3214118Y3005700D02*
X2844474Y3697300D01*
X2844474Y3697300D02*
X2616859Y4447700D01*
X2616859Y4447700D02*
X2540000Y5228000D01*
X2540000Y5228000D02*
X2540000Y47228000D01*
X2540000Y47228000D02*
X2616859Y48008360D01*
X2616859Y48008360D02*
X2844474Y48758750D01*
X2844474Y48758750D02*
X3214118Y49450290D01*
X3214118Y49450290D02*
X3711570Y50056430D01*
X3711570Y50056430D02*
X4317710Y50553882D01*
X4317710Y50553882D02*
X5009250Y50923526D01*
X5009250Y50923526D02*
X5759640Y51151141D01*
X5759640Y51151141D02*
X6539980Y51228000D01*
X6539980Y51228000D02*
X48540000Y51228000D01*
X48540000Y51228000D02*
X49320300Y51151141D01*
X6227850Y6797300D02*
X5927700Y6706200D01*
X5927700Y6706200D02*
X5651080Y6558400D01*
X5651080Y6558400D02*
X5408620Y6359400D01*
X5408620Y6359400D02*
X5209650Y6116900D01*
X5209650Y6116900D02*
X5061790Y5840300D01*
X5061790Y5840300D02*
X4970740Y5540100D01*
X4970740Y5540100D02*
X4939990Y5228000D01*
X4939990Y5228000D02*
X4970740Y4915900D01*
X4970740Y4915900D02*
X5061790Y4615700D01*
X5061790Y4615700D02*
X5209650Y4339100D01*
X5209650Y4339100D02*
X5408620Y4096600D01*
X5408620Y4096600D02*
X5651080Y3897700D01*
X5651080Y3897700D02*
X5927700Y3749800D01*
X5927700Y3749800D02*
X6227850Y3658800D01*
X6227850Y3658800D02*
X6540000Y3628000D01*
X6540000Y3628000D02*
X6852130Y3658800D01*
X6852130Y3658800D02*
X7152290Y3749800D01*
X7152290Y3749800D02*
X7428900Y3897700D01*
X7428900Y3897700D02*
X7671360Y4096600D01*
X7671360Y4096600D02*
X7870340Y4339100D01*
X7870340Y4339100D02*
X8018200Y4615700D01*
X8018200Y4615700D02*
X8109240Y4915900D01*
X8109240Y4915900D02*
X8139990Y5228000D01*
X8139990Y5228000D02*
X8109240Y5540100D01*
X8109240Y5540100D02*
X8018200Y5840300D01*
X8018200Y5840300D02*
X7870340Y6116900D01*
X7870340Y6116900D02*
X7671360Y6359400D01*
X7671360Y6359400D02*
X7428900Y6558400D01*
X7428900Y6558400D02*
X7152290Y6706200D01*
X7152290Y6706200D02*
X6852130Y6797300D01*
X6852130Y6797300D02*
X6539980Y6828000D01*
X6539980Y6828000D02*
X6227850Y6797300D01*
X48227900Y6797300D02*
X47927700Y6706200D01*
X47927700Y6706200D02*
X47651100Y6558400D01*
X47651100Y6558400D02*
X47408600Y6359400D01*
X47408600Y6359400D02*
X47209600Y6116900D01*
X47209600Y6116900D02*
X47061800Y5840300D01*
X47061800Y5840300D02*
X46970700Y5540100D01*
X46970700Y5540100D02*
X46940000Y5228000D01*
X46940000Y5228000D02*
X46970700Y4915900D01*
X46970700Y4915900D02*
X47061800Y4615700D01*
X47061800Y4615700D02*
X47209600Y4339100D01*
X47209600Y4339100D02*
X47408600Y4096600D01*
X47408600Y4096600D02*
X47651100Y3897700D01*
X47651100Y3897700D02*
X47927700Y3749800D01*
X47927700Y3749800D02*
X48227900Y3658800D01*
X48227900Y3658800D02*
X48540000Y3628000D01*
X48540000Y3628000D02*
X48852100Y3658800D01*
X48852100Y3658800D02*
X49152300Y3749800D01*
X49152300Y3749800D02*
X49428900Y3897700D01*
X49428900Y3897700D02*
X49671400Y4096600D01*
X49671400Y4096600D02*
X49870300Y4339100D01*
X49870300Y4339100D02*
X50018200Y4615700D01*
X50018200Y4615700D02*
X50109200Y4915900D01*
X50109200Y4915900D02*
X50140000Y5228000D01*
X50140000Y5228000D02*
X50109200Y5540100D01*
X50109200Y5540100D02*
X50018200Y5840300D01*
X50018200Y5840300D02*
X49870300Y6116900D01*
X49870300Y6116900D02*
X49671400Y6359400D01*
X49671400Y6359400D02*
X49428900Y6558400D01*
X49428900Y6558400D02*
X49152300Y6706200D01*
X49152300Y6706200D02*
X48852100Y6797300D01*
X48852100Y6797300D02*
X48540000Y6828000D01*
X48540000Y6828000D02*
X48227900Y6797300D01*
X6227850Y48797260D02*
X5927700Y48706210D01*
X5927700Y48706210D02*
X5651080Y48558350D01*
X5651080Y48558350D02*
X5408620Y48359380D01*
X5408620Y48359380D02*
X5209650Y48116920D01*
X5209650Y48116920D02*
X5061790Y47840300D01*
X5061790Y47840300D02*
X4970740Y47540150D01*
X4970740Y47540150D02*
X4939990Y47228000D01*
X4939990Y47228000D02*
X4970740Y46915870D01*
X4970740Y46915870D02*
X5061790Y46615710D01*
X5061790Y46615710D02*
X5209650Y46339100D01*
X5209650Y46339100D02*
X5408620Y46096640D01*
X5408620Y46096640D02*
X5651080Y45897660D01*
X5651080Y45897660D02*
X5927700Y45749800D01*
X5927700Y45749800D02*
X6227850Y45658760D01*
X6227850Y45658760D02*
X6540000Y45628010D01*
X6540000Y45628010D02*
X6852130Y45658760D01*
X6852130Y45658760D02*
X7152290Y45749800D01*
X7152290Y45749800D02*
X7428900Y45897660D01*
X7428900Y45897660D02*
X7671360Y46096640D01*
X7671360Y46096640D02*
X7870340Y46339100D01*
X7870340Y46339100D02*
X8018200Y46615710D01*
X8018200Y46615710D02*
X8109240Y46915870D01*
X8109240Y46915870D02*
X8139990Y47228000D01*
X8139990Y47228000D02*
X8109240Y47540150D01*
X8109240Y47540150D02*
X8018200Y47840300D01*
X8018200Y47840300D02*
X7870340Y48116920D01*
X7870340Y48116920D02*
X7671360Y48359380D01*
X7671360Y48359380D02*
X7428900Y48558350D01*
X7428900Y48558350D02*
X7152290Y48706210D01*
X7152290Y48706210D02*
X6852130Y48797260D01*
X6852130Y48797260D02*
X6539980Y48828010D01*
X6539980Y48828010D02*
X6227850Y48797260D01*
X48227900Y48797260D02*
X47927700Y48706210D01*
X47927700Y48706210D02*
X47651100Y48558350D01*
X47651100Y48558350D02*
X47408600Y48359380D01*
X47408600Y48359380D02*
X47209600Y48116920D01*
X47209600Y48116920D02*
X47061800Y47840300D01*
X47061800Y47840300D02*
X46970700Y47540150D01*
X46970700Y47540150D02*
X46940000Y47228000D01*
X46940000Y47228000D02*
X46970700Y46915870D01*
X46970700Y46915870D02*
X47061800Y46615710D01*
X47061800Y46615710D02*
X47209600Y46339100D01*
X47209600Y46339100D02*
X47408600Y46096640D01*
X47408600Y46096640D02*
X47651100Y45897660D01*
X47651100Y45897660D02*
X47927700Y45749800D01*
X47927700Y45749800D02*
X48227900Y45658760D01*
X48227900Y45658760D02*
X48540000Y45628010D01*
X48540000Y45628010D02*
X48852100Y45658760D01*
X48852100Y45658760D02*
X49152300Y45749800D01*
X49152300Y45749800D02*
X49428900Y45897660D01*
X49428900Y45897660D02*
X49671400Y46096640D01*
X49671400Y46096640D02*
X49870300Y46339100D01*
X49870300Y46339100D02*
X50018200Y46615710D01*
X50018200Y46615710D02*
X50109200Y46915870D01*
X50109200Y46915870D02*
X50140000Y47228000D01*
X50140000Y47228000D02*
X50109200Y47540150D01*
X50109200Y47540150D02*
X50018200Y47840300D01*
X50018200Y47840300D02*
X49870300Y48116920D01*
X49870300Y48116920D02*
X49671400Y48359380D01*
X49671400Y48359380D02*
X49428900Y48558350D01*
X49428900Y48558350D02*
X49152300Y48706210D01*
X49152300Y48706210D02*
X48852100Y48797260D01*
X48852100Y48797260D02*
X48540000Y48828010D01*
X48540000Y48828010D02*
X48227900Y48797260D01*
M02*
