M48
;DRILL file {KiCad 4.0.4-stable} date 06/12/17 16:56:42
;FORMAT={-:-/ absolute / inch / decimal}
FMAT,2
INCH,TZ
T1C0.025
T2C0.031
T3C0.032
T4C0.035
T5C0.039
T6C0.039
T7C0.040
T8C0.047
T9C0.039
T10C0.098
T11C0.150
%
G90
G05
M72
T1
X0.825Y0.915
X0.975Y0.935
X1.065Y0.935
X1.13Y0.8
X1.265Y1.565
T2
X0.2669Y0.9181
X0.2669Y0.8394
X0.2669Y0.7606
X0.2669Y0.6819
X0.4766Y0.325
X0.5516Y0.95
X0.5516Y0.6
X0.65Y0.95
X0.65Y0.6
X0.6734Y0.325
X0.8394Y0.685
X0.8394Y0.385
X0.9394Y0.685
X0.9394Y0.385
X1.0394Y0.685
X1.0394Y0.385
X1.1394Y0.685
X1.1394Y0.385
X1.2394Y0.685
X1.2394Y0.385
X1.3394Y0.685
X1.3394Y0.385
X1.4394Y0.685
X1.4394Y0.385
X1.625Y1.125
X1.625Y1.025
X1.625Y0.925
X1.625Y0.825
X1.625Y0.725
X1.625Y0.625
X1.625Y0.525
X1.625Y0.425
X1.9Y1.4921
X1.9Y1.2953
X1.925Y1.125
X1.925Y1.025
X1.925Y0.925
X1.925Y0.825
X1.925Y0.725
X1.925Y0.625
X1.925Y0.525
X1.925Y0.425
T4
X1.7Y1.7719
X1.7Y1.6734
X1.7Y1.575
X1.7Y1.4766
X1.7Y1.3781
T5
X0.9776Y0.2602
X0.9776Y0.1602
X1.1941Y0.2602
X1.1941Y0.1602
T6
X0.35Y1.1
X0.35Y0.9
X0.35Y0.7
X0.35Y0.5
X0.425Y0.2
X0.7156Y1.2969
X0.7156Y1.1969
X0.7156Y1.0969
X0.825Y0.2
X0.965Y1.645
X1.335Y1.645
X1.375Y0.25
X1.375Y0.125
X1.775Y0.25
X1.775Y0.125
T7
X1.225Y0.9
X1.225Y0.8
X1.325Y0.9
X1.325Y0.8
X1.425Y0.9
X1.425Y0.8
T8
X0.45Y1.675
X0.45Y1.475
T9
X0.9028Y0.3067
T10
X1.0859Y0.285
X1.0859Y0.1354
T11
X1.3756Y1.1969
T3
X0.56Y1.6104G85X0.56Y1.5395
G05
X0.7055Y1.4G85X0.6345Y1.4
G05
X0.8Y1.6191G85X0.8Y1.5309
G05
T0
M30
