G04 #@! TF.FileFunction,Copper,L2,Bot,Signal*
%FSLAX46Y46*%
G04 Gerber Fmt 4.6, Leading zero omitted, Abs format (unit mm)*
G04 Created by KiCad (PCBNEW 4.0.4-stable) date 06/12/17 16:56:40*
%MOMM*%
%LPD*%
G01*
G04 APERTURE LIST*
%ADD10C,0.150000*%
%ADD11C,0.300000*%
%ADD12O,2.000000X1.600000*%
%ADD13C,1.800000*%
%ADD14R,1.300000X1.300000*%
%ADD15C,1.300000*%
%ADD16O,1.600200X4.399280*%
%ADD17O,1.998980X3.401060*%
%ADD18O,3.401060X1.998980*%
%ADD19R,2.499360X2.499360*%
%ADD20C,2.499360*%
%ADD21R,1.727200X1.727200*%
%ADD22O,1.727200X1.727200*%
%ADD23C,1.998980*%
%ADD24O,2.499360X1.501140*%
%ADD25R,2.032000X2.032000*%
%ADD26C,2.032000*%
%ADD27R,1.500000X1.500000*%
%ADD28C,1.500000*%
%ADD29C,2.540000*%
%ADD30O,1.600000X2.300000*%
%ADD31O,2.300000X1.600000*%
%ADD32C,0.889000*%
%ADD33C,0.609600*%
%ADD34C,0.406400*%
%ADD35C,0.254000*%
%ADD36C,0.381000*%
G04 APERTURE END LIST*
D10*
D11*
X30161999Y45041429D02*
X31019142Y45041429D01*
X30590570Y45041429D02*
X30590570Y46541429D01*
X30733427Y46327143D01*
X30876285Y46184286D01*
X31019142Y46112857D01*
X29590571Y46398571D02*
X29519142Y46470000D01*
X29376285Y46541429D01*
X29019142Y46541429D01*
X28876285Y46470000D01*
X28804856Y46398571D01*
X28733428Y46255714D01*
X28733428Y46112857D01*
X28804856Y45898571D01*
X29661999Y45041429D01*
X28733428Y45041429D01*
X27019143Y46612857D02*
X28304857Y44684286D01*
X25876285Y46541429D02*
X26161999Y46541429D01*
X26304856Y46470000D01*
X26376285Y46398571D01*
X26519142Y46184286D01*
X26590571Y45898571D01*
X26590571Y45327143D01*
X26519142Y45184286D01*
X26447714Y45112857D01*
X26304856Y45041429D01*
X26019142Y45041429D01*
X25876285Y45112857D01*
X25804856Y45184286D01*
X25733428Y45327143D01*
X25733428Y45684286D01*
X25804856Y45827143D01*
X25876285Y45898571D01*
X26019142Y45970000D01*
X26304856Y45970000D01*
X26447714Y45898571D01*
X26519142Y45827143D01*
X26590571Y45684286D01*
X24019143Y46612857D02*
X25304857Y44684286D01*
X22733428Y45041429D02*
X23590571Y45041429D01*
X23161999Y45041429D02*
X23161999Y46541429D01*
X23304856Y46327143D01*
X23447714Y46184286D01*
X23590571Y46112857D01*
X22233428Y46541429D02*
X21233428Y46541429D01*
X21876285Y45041429D01*
D12*
X43180000Y45005000D03*
X43180000Y42505000D03*
X43180000Y40005000D03*
X43180000Y37505000D03*
X43180000Y35005000D03*
D13*
X24831000Y4069000D03*
X24831000Y6609000D03*
X30331000Y6609000D03*
X30331000Y4069000D03*
D14*
X17105000Y8255000D03*
D15*
X12105000Y8255000D03*
D14*
X48260000Y32900000D03*
D15*
X48260000Y37900000D03*
D16*
X20320000Y40005000D03*
D17*
X14224000Y40005000D03*
D18*
X17018000Y35560000D03*
D19*
X11430000Y42545000D03*
D20*
X11430000Y37465000D03*
D21*
X36195000Y22860000D03*
D22*
X36195000Y20320000D03*
X33655000Y22860000D03*
X33655000Y20320000D03*
X31115000Y22860000D03*
X31115000Y20320000D03*
D23*
X20955000Y5080000D03*
X10795000Y5080000D03*
X45085000Y3175000D03*
X34925000Y3175000D03*
X45085000Y6350000D03*
X34925000Y6350000D03*
D24*
X18176000Y30400000D03*
X18176000Y32940000D03*
X18176000Y27860000D03*
D15*
X14010000Y24130000D03*
D14*
X16510000Y24130000D03*
D15*
X14010000Y15240000D03*
D14*
X16510000Y15240000D03*
D25*
X8890000Y12700000D03*
D26*
X8890000Y17780000D03*
X8890000Y22860000D03*
X8890000Y27940000D03*
D27*
X6779000Y17320000D03*
D28*
X6779000Y19320000D03*
X6779000Y21320000D03*
X6779000Y23320000D03*
D29*
X33909000Y41783000D03*
X24511000Y41783000D03*
D30*
X21320000Y9780000D03*
X23860000Y9780000D03*
X26400000Y9780000D03*
X28940000Y9780000D03*
X31480000Y9780000D03*
X34020000Y9780000D03*
X36560000Y9780000D03*
X36560000Y17400000D03*
X34020000Y17400000D03*
X31480000Y17400000D03*
X28940000Y17400000D03*
X26400000Y17400000D03*
X23860000Y17400000D03*
X21320000Y17400000D03*
D31*
X41275000Y28575000D03*
X41275000Y26035000D03*
X41275000Y23495000D03*
X41275000Y20955000D03*
X41275000Y18415000D03*
X41275000Y15875000D03*
X41275000Y13335000D03*
X41275000Y10795000D03*
X48895000Y10795000D03*
X48895000Y13335000D03*
X48895000Y15875000D03*
X48895000Y18415000D03*
X48895000Y20955000D03*
X48895000Y23495000D03*
X48895000Y26035000D03*
X48895000Y28575000D03*
D32*
X32131000Y39751000D03*
X20955000Y23241000D03*
X28702000Y20320000D03*
X24765000Y23749000D03*
X27051000Y23749000D03*
D33*
X8890000Y17780000D02*
X15621000Y17780000D01*
X15621000Y17780000D02*
X16510000Y16891000D01*
X16510000Y15240000D02*
X16510000Y16891000D01*
X32131000Y39751000D02*
X36877000Y35005000D01*
X36877000Y35005000D02*
X43180000Y35005000D01*
X10795000Y5080000D02*
X10160000Y5080000D01*
X18176000Y27860000D02*
X20527000Y27860000D01*
X20527000Y27860000D02*
X22733000Y25654000D01*
X36195000Y20320000D02*
X37617401Y21742401D01*
X43180000Y33595400D02*
X43180000Y35005000D01*
X17105000Y8255000D02*
X17105000Y6995400D01*
X15189600Y5080000D02*
X10795000Y5080000D01*
X17105000Y8255000D02*
X19795000Y8255000D01*
X19795000Y8255000D02*
X21320000Y9780000D01*
X48260000Y32900000D02*
X48260000Y31640400D01*
X48260000Y31640400D02*
X47186190Y30566590D01*
X47186190Y30566590D02*
X47186190Y10845790D01*
X47186190Y10845790D02*
X47135400Y10795000D01*
X48895000Y10795000D02*
X48545000Y10795000D01*
X34925000Y6350000D02*
X36483291Y7908291D01*
X36483291Y7908291D02*
X44248691Y7908291D01*
X44248691Y7908291D02*
X47135400Y10795000D01*
X47135400Y10795000D02*
X48895000Y10795000D01*
X48260000Y32900000D02*
X48260000Y34159600D01*
X48260000Y34159600D02*
X47414600Y35005000D01*
X47414600Y35005000D02*
X44789600Y35005000D01*
X44789600Y35005000D02*
X43180000Y35005000D01*
X37617401Y28032801D02*
X43180000Y33595400D01*
X22733000Y25654000D02*
X37617401Y25654000D01*
X37617401Y21742401D02*
X37617401Y25654000D01*
X37617401Y25654000D02*
X37617401Y28032801D01*
X17105000Y6995400D02*
X15189600Y5080000D01*
D34*
X21320000Y17400000D02*
X21320000Y18653000D01*
X22098000Y22098000D02*
X20955000Y23241000D01*
X22098000Y19431000D02*
X22098000Y22098000D01*
X21320000Y18653000D02*
X22098000Y19431000D01*
X21320000Y17400000D02*
X21843000Y17400000D01*
D33*
X28702000Y20320000D02*
X31115000Y20320000D01*
D35*
X36195000Y22860000D02*
X36195000Y22780000D01*
X36195000Y22780000D02*
X34950399Y21535399D01*
X34950399Y21535399D02*
X34950399Y19009601D01*
X34950399Y19009601D02*
X35760001Y18199999D01*
X35760001Y18199999D02*
X36560000Y17400000D01*
D34*
X31480000Y9780000D02*
X37817201Y16117201D01*
X37817201Y16117201D02*
X37817201Y20387201D01*
X37817201Y20387201D02*
X40925000Y23495000D01*
X40925000Y23495000D02*
X41275000Y23495000D01*
D33*
X23749000Y22733000D02*
X23749000Y22479000D01*
X24765000Y23749000D02*
X23749000Y22733000D01*
X26400000Y17400000D02*
X26400000Y17415000D01*
X26400000Y17415000D02*
X23749000Y20066000D01*
X23749000Y20066000D02*
X23749000Y22479000D01*
X27051000Y23749000D02*
X27051000Y21717000D01*
X28940000Y17400000D02*
X28940000Y17669000D01*
X28940000Y17669000D02*
X27051000Y19558000D01*
X27051000Y19558000D02*
X27051000Y21717000D01*
X28940000Y17400000D02*
X28940000Y17796000D01*
D34*
X34020000Y9780000D02*
X39667790Y15427790D01*
X39667790Y19697790D02*
X40925000Y20955000D01*
X40925000Y20955000D02*
X41275000Y20955000D01*
X39667790Y15427790D02*
X39667790Y19697790D01*
D36*
X26400000Y9780000D02*
X26400000Y10906000D01*
X26400000Y10906000D02*
X27432000Y11938000D01*
X27432000Y11938000D02*
X29337000Y11938000D01*
X29337000Y11938000D02*
X30226000Y11049000D01*
X30226000Y11049000D02*
X30226000Y8763000D01*
X30226000Y8763000D02*
X34163000Y4826000D01*
X34163000Y4826000D02*
X43434000Y4826000D01*
X43434000Y4826000D02*
X45085000Y3175000D01*
D34*
X20955000Y5080000D02*
X21966000Y4069000D01*
X21966000Y4069000D02*
X24831000Y4069000D01*
D33*
X16510000Y24130000D02*
X16510000Y25654000D01*
X16430000Y32940000D02*
X18176000Y32940000D01*
X16002000Y32512000D02*
X16430000Y32940000D01*
X16002000Y26162000D02*
X16002000Y32512000D01*
X16510000Y25654000D02*
X16002000Y26162000D01*
X18675110Y32940000D02*
X18176000Y32940000D01*
X8890000Y22860000D02*
X9525000Y22860000D01*
X9525000Y22860000D02*
X12700000Y19685000D01*
X23860000Y11065000D02*
X23860000Y9780000D01*
X15240000Y19685000D02*
X23860000Y11065000D01*
X12700000Y19685000D02*
X15240000Y19685000D01*
X8890000Y27940000D02*
X8890000Y26543000D01*
X31480000Y16113000D02*
X31480000Y17400000D01*
X30734000Y15367000D02*
X31480000Y16113000D01*
X20828000Y15367000D02*
X30734000Y15367000D01*
X19304000Y16891000D02*
X20828000Y15367000D01*
X19304000Y18542000D02*
X19304000Y16891000D01*
X16002000Y21844000D02*
X19304000Y18542000D01*
X13589000Y21844000D02*
X16002000Y21844000D01*
X8890000Y26543000D02*
X13589000Y21844000D01*
X14224000Y40005000D02*
X14224000Y40640000D01*
X14224000Y40640000D02*
X17018000Y43434000D01*
X22860000Y43434000D02*
X24511000Y41783000D01*
X17018000Y43434000D02*
X22860000Y43434000D01*
D34*
X11430000Y37465000D02*
X11684000Y37465000D01*
X11684000Y37465000D02*
X14224000Y40005000D01*
D35*
G36*
X49186021Y50476052D02*
X49807306Y50287601D01*
X50379886Y49981571D01*
X50881696Y49569715D01*
X51293587Y49067878D01*
X51599571Y48495368D01*
X51788015Y47874071D01*
X51855000Y47194330D01*
X51855000Y5261677D01*
X51788015Y4581989D01*
X51599566Y3960670D01*
X51293582Y3388109D01*
X50881692Y2886308D01*
X50379888Y2474416D01*
X49807330Y2168434D01*
X49186011Y1979985D01*
X48506322Y1913000D01*
X46134334Y1913000D01*
X46469846Y2247927D01*
X46719206Y2848453D01*
X46719774Y3498694D01*
X46471462Y4099655D01*
X46012073Y4559846D01*
X45523568Y4762691D01*
X46009655Y4963538D01*
X46263847Y5217287D01*
X46258290Y5160943D01*
X46288990Y4848843D01*
X46308589Y4784204D01*
X46315217Y4716984D01*
X46406317Y4416785D01*
X46438089Y4357360D01*
X46457642Y4292871D01*
X46605442Y4016271D01*
X46648256Y3964088D01*
X46680072Y3904560D01*
X46879072Y3662060D01*
X46931306Y3619190D01*
X46974190Y3566965D01*
X47216690Y3368065D01*
X47276070Y3336347D01*
X47328101Y3293633D01*
X47604701Y3145733D01*
X47669375Y3126104D01*
X47728984Y3094257D01*
X48029184Y3003257D01*
X48096194Y2996670D01*
X48160627Y2977111D01*
X48472727Y2946311D01*
X48540000Y2952924D01*
X48607273Y2946311D01*
X48919373Y2977111D01*
X48983806Y2996670D01*
X49050816Y3003257D01*
X49351015Y3094257D01*
X49410624Y3126103D01*
X49475299Y3145733D01*
X49751899Y3293633D01*
X49803930Y3336347D01*
X49863310Y3368065D01*
X50105810Y3566965D01*
X50148747Y3619254D01*
X50201035Y3662190D01*
X50399935Y3904690D01*
X50431653Y3964070D01*
X50474367Y4016101D01*
X50622267Y4292701D01*
X50641896Y4357375D01*
X50673743Y4416984D01*
X50764743Y4717184D01*
X50771330Y4784194D01*
X50790889Y4848627D01*
X50821689Y5160727D01*
X50815076Y5228000D01*
X50821689Y5295273D01*
X50790889Y5607373D01*
X50771330Y5671806D01*
X50764743Y5738816D01*
X50673743Y6039016D01*
X50641896Y6098625D01*
X50622267Y6163299D01*
X50474367Y6439899D01*
X50431653Y6491930D01*
X50399935Y6551310D01*
X50201035Y6793810D01*
X50148810Y6836694D01*
X50105940Y6888928D01*
X49863440Y7087928D01*
X49803912Y7119744D01*
X49751729Y7162558D01*
X49475129Y7310358D01*
X49410640Y7329911D01*
X49351215Y7361683D01*
X49051016Y7452783D01*
X48983796Y7459411D01*
X48919157Y7479010D01*
X48607057Y7509710D01*
X48540000Y7503097D01*
X48472943Y7509710D01*
X48160843Y7479010D01*
X48096204Y7459411D01*
X48028984Y7452783D01*
X47728784Y7361683D01*
X47669358Y7329911D01*
X47604871Y7310358D01*
X47328271Y7162558D01*
X47276089Y7119745D01*
X47216559Y7087928D01*
X46974060Y6888928D01*
X46931242Y6836758D01*
X46879072Y6793940D01*
X46719709Y6599742D01*
X46719774Y6673694D01*
X46471462Y7274655D01*
X46012073Y7734846D01*
X45582640Y7913162D01*
X47477086Y9807608D01*
X47495332Y9780302D01*
X47960879Y9469233D01*
X48510030Y9360000D01*
X49279970Y9360000D01*
X49829121Y9469233D01*
X50294668Y9780302D01*
X50605737Y10245849D01*
X50714970Y10795000D01*
X50605737Y11344151D01*
X50294668Y11809698D01*
X49912582Y12065000D01*
X50294668Y12320302D01*
X50605737Y12785849D01*
X50714970Y13335000D01*
X50605737Y13884151D01*
X50294668Y14349698D01*
X49912582Y14605000D01*
X50294668Y14860302D01*
X50605737Y15325849D01*
X50714970Y15875000D01*
X50605737Y16424151D01*
X50294668Y16889698D01*
X49912582Y17145000D01*
X50294668Y17400302D01*
X50605737Y17865849D01*
X50714970Y18415000D01*
X50605737Y18964151D01*
X50294668Y19429698D01*
X49912582Y19685000D01*
X50294668Y19940302D01*
X50605737Y20405849D01*
X50714970Y20955000D01*
X50605737Y21504151D01*
X50294668Y21969698D01*
X49912582Y22225000D01*
X50294668Y22480302D01*
X50605737Y22945849D01*
X50714970Y23495000D01*
X50605737Y24044151D01*
X50294668Y24509698D01*
X49912582Y24765000D01*
X50294668Y25020302D01*
X50605737Y25485849D01*
X50714970Y26035000D01*
X50605737Y26584151D01*
X50294668Y27049698D01*
X49912582Y27305000D01*
X50294668Y27560302D01*
X50605737Y28025849D01*
X50714970Y28575000D01*
X50605737Y29124151D01*
X50294668Y29589698D01*
X49829121Y29900767D01*
X49279970Y30010000D01*
X48510030Y30010000D01*
X48125990Y29933610D01*
X48125990Y30177312D01*
X48924539Y30975861D01*
X49128262Y31280754D01*
X49199800Y31640400D01*
X49199800Y31681897D01*
X49361441Y31785910D01*
X49506431Y31998110D01*
X49557440Y32250000D01*
X49557440Y33550000D01*
X49513162Y33785317D01*
X49374090Y34001441D01*
X49199800Y34120528D01*
X49199800Y34159600D01*
X49128262Y34519246D01*
X48924539Y34824139D01*
X48079139Y35669539D01*
X47774246Y35873262D01*
X47414600Y35944800D01*
X44476775Y35944800D01*
X44426730Y36019698D01*
X44074576Y36255000D01*
X44426730Y36490302D01*
X44737799Y36955849D01*
X44746776Y37000984D01*
X47540590Y37000984D01*
X47596271Y36770389D01*
X48079078Y36602378D01*
X48589428Y36631917D01*
X48923729Y36770389D01*
X48979410Y37000984D01*
X48260000Y37720395D01*
X47540590Y37000984D01*
X44746776Y37000984D01*
X44847032Y37505000D01*
X44737799Y38054151D01*
X44719912Y38080922D01*
X46962378Y38080922D01*
X46991917Y37570572D01*
X47130389Y37236271D01*
X47360984Y37180590D01*
X48080395Y37900000D01*
X48439605Y37900000D01*
X49159016Y37180590D01*
X49389611Y37236271D01*
X49557622Y37719078D01*
X49528083Y38229428D01*
X49389611Y38563729D01*
X49159016Y38619410D01*
X48439605Y37900000D01*
X48080395Y37900000D01*
X47360984Y38619410D01*
X47130389Y38563729D01*
X46962378Y38080922D01*
X44719912Y38080922D01*
X44426730Y38519698D01*
X44074576Y38755000D01*
X44140450Y38799016D01*
X47540590Y38799016D01*
X48260000Y38079605D01*
X48979410Y38799016D01*
X48923729Y39029611D01*
X48440922Y39197622D01*
X47930572Y39168083D01*
X47596271Y39029611D01*
X47540590Y38799016D01*
X44140450Y38799016D01*
X44426730Y38990302D01*
X44737799Y39455849D01*
X44847032Y40005000D01*
X44737799Y40554151D01*
X44426730Y41019698D01*
X44074576Y41255000D01*
X44426730Y41490302D01*
X44737799Y41955849D01*
X44847032Y42505000D01*
X44737799Y43054151D01*
X44426730Y43519698D01*
X44074576Y43755000D01*
X44426730Y43990302D01*
X44737799Y44455849D01*
X44847032Y45005000D01*
X44737799Y45554151D01*
X44426730Y46019698D01*
X43961183Y46330767D01*
X43412032Y46440000D01*
X42947968Y46440000D01*
X42398817Y46330767D01*
X41933270Y46019698D01*
X41622201Y45554151D01*
X41512968Y45005000D01*
X41622201Y44455849D01*
X41933270Y43990302D01*
X42285424Y43755000D01*
X41933270Y43519698D01*
X41622201Y43054151D01*
X41512968Y42505000D01*
X41622201Y41955849D01*
X41933270Y41490302D01*
X42285424Y41255000D01*
X41933270Y41019698D01*
X41622201Y40554151D01*
X41512968Y40005000D01*
X41622201Y39455849D01*
X41933270Y38990302D01*
X42285424Y38755000D01*
X41933270Y38519698D01*
X41622201Y38054151D01*
X41512968Y37505000D01*
X41622201Y36955849D01*
X41933270Y36490302D01*
X42285424Y36255000D01*
X41933270Y36019698D01*
X41883225Y35944800D01*
X37266278Y35944800D01*
X33193807Y40017271D01*
X33528410Y39878332D01*
X34286265Y39877670D01*
X34986686Y40167078D01*
X35523039Y40702495D01*
X35813668Y41402410D01*
X35814330Y42160265D01*
X35524922Y42860686D01*
X34989505Y43397039D01*
X34289590Y43687668D01*
X33531735Y43688330D01*
X32831314Y43398922D01*
X32294961Y42863505D01*
X32004332Y42163590D01*
X32003670Y41405735D01*
X32241392Y40830405D01*
X31917216Y40830687D01*
X31520311Y40666689D01*
X31216378Y40363286D01*
X31051687Y39966668D01*
X31051313Y39537216D01*
X31215311Y39140311D01*
X31518714Y38836378D01*
X31857023Y38695899D01*
X36212461Y34340461D01*
X36517354Y34136738D01*
X36877000Y34065200D01*
X41883225Y34065200D01*
X41933270Y33990302D01*
X42120632Y33865110D01*
X36952862Y28697340D01*
X36749139Y28392447D01*
X36677601Y28032801D01*
X36677601Y26593800D01*
X23122278Y26593800D01*
X21191539Y28524539D01*
X20886646Y28728262D01*
X20527000Y28799800D01*
X19718470Y28799800D01*
X19691779Y28839746D01*
X19242268Y29140100D01*
X19232968Y29141950D01*
X19322677Y29168501D01*
X19744658Y29510056D01*
X19955400Y29897985D01*
X32404641Y29897985D01*
X32789746Y28965959D01*
X33502208Y28252252D01*
X34433561Y27865521D01*
X35442015Y27864641D01*
X36374041Y28249746D01*
X37087748Y28962208D01*
X37474479Y29893561D01*
X37475359Y30902015D01*
X37090254Y31834041D01*
X36377792Y32547748D01*
X35446439Y32934479D01*
X34437985Y32935359D01*
X33505959Y32550254D01*
X32792252Y31837792D01*
X32405521Y30906439D01*
X32404641Y29897985D01*
X19955400Y29897985D01*
X20003810Y29987097D01*
X20017993Y30058725D01*
X19895339Y30273000D01*
X18303000Y30273000D01*
X18303000Y30253000D01*
X18049000Y30253000D01*
X18049000Y30273000D01*
X18029000Y30273000D01*
X18029000Y30527000D01*
X18049000Y30527000D01*
X18049000Y30547000D01*
X18303000Y30547000D01*
X18303000Y30527000D01*
X19895339Y30527000D01*
X20017993Y30741275D01*
X20003810Y30812903D01*
X19744658Y31289944D01*
X19322677Y31631499D01*
X19232968Y31658050D01*
X19242268Y31659900D01*
X19691779Y31960254D01*
X19992133Y32409765D01*
X20097603Y32940000D01*
X19992133Y33470235D01*
X19691779Y33919746D01*
X19242268Y34220100D01*
X18742702Y34319470D01*
X18964602Y34494044D01*
X19277713Y35051841D01*
X19308659Y35179646D01*
X19189305Y35433000D01*
X17145000Y35433000D01*
X17145000Y35413000D01*
X16891000Y35413000D01*
X16891000Y35433000D01*
X14846695Y35433000D01*
X14727341Y35179646D01*
X14758287Y35051841D01*
X15071398Y34494044D01*
X15574135Y34098529D01*
X16189960Y33925510D01*
X16668847Y33925510D01*
X16660221Y33919746D01*
X16633530Y33879800D01*
X16430000Y33879800D01*
X16070354Y33808262D01*
X15765461Y33604539D01*
X15337461Y33176539D01*
X15133738Y32871646D01*
X15062200Y32512000D01*
X15062200Y26162000D01*
X15133738Y25802354D01*
X15337461Y25497461D01*
X15519466Y25315456D01*
X15408559Y25244090D01*
X15263569Y25031890D01*
X15212560Y24780000D01*
X15212560Y24617615D01*
X15139611Y24793729D01*
X14909016Y24849410D01*
X14189605Y24130000D01*
X14909016Y23410590D01*
X15139611Y23466271D01*
X15212560Y23675902D01*
X15212560Y23480000D01*
X15256838Y23244683D01*
X15395910Y23028559D01*
X15608110Y22883569D01*
X15860000Y22832560D01*
X17160000Y22832560D01*
X17395317Y22876838D01*
X17611441Y23015910D01*
X17756431Y23228110D01*
X17807440Y23480000D01*
X17807440Y24780000D01*
X17763162Y25015317D01*
X17624090Y25231441D01*
X17449800Y25350528D01*
X17449800Y25654000D01*
X17378262Y26013646D01*
X17174539Y26318539D01*
X16941800Y26551278D01*
X16941800Y26692109D01*
X17109732Y26579900D01*
X17639967Y26474430D01*
X18712033Y26474430D01*
X19242268Y26579900D01*
X19691779Y26880254D01*
X19718470Y26920200D01*
X20137722Y26920200D01*
X22068461Y24989461D01*
X22373354Y24785738D01*
X22733000Y24714200D01*
X24274137Y24714200D01*
X24154311Y24664689D01*
X23850378Y24361286D01*
X23709899Y24022977D01*
X23084461Y23397539D01*
X22880738Y23092646D01*
X22809200Y22733000D01*
X22809200Y20066000D01*
X22880738Y19706354D01*
X23084461Y19401461D01*
X23364511Y19121411D01*
X23310849Y19110737D01*
X22845302Y18799668D01*
X22592851Y18421849D01*
X22244896Y18854500D01*
X21751819Y19124367D01*
X21669039Y19141904D01*
X21447000Y19019915D01*
X21447000Y17527000D01*
X21467000Y17527000D01*
X21467000Y17273000D01*
X21447000Y17273000D01*
X21447000Y17253000D01*
X21193000Y17253000D01*
X21193000Y17273000D01*
X21173000Y17273000D01*
X21173000Y17527000D01*
X21193000Y17527000D01*
X21193000Y19019915D01*
X20970961Y19141904D01*
X20888181Y19124367D01*
X20395104Y18854500D01*
X20223967Y18641706D01*
X20172262Y18901646D01*
X19968539Y19206539D01*
X16666539Y22508539D01*
X16361646Y22712262D01*
X16002000Y22783800D01*
X13978278Y22783800D01*
X13924195Y22837883D01*
X14339428Y22861917D01*
X14673729Y23000389D01*
X14729410Y23230984D01*
X14010000Y23950395D01*
X13995858Y23936252D01*
X13816252Y24115858D01*
X13830395Y24130000D01*
X13110984Y24849410D01*
X12880389Y24793729D01*
X12712378Y24310922D01*
X12728426Y24033652D01*
X11733062Y25029016D01*
X13290590Y25029016D01*
X14010000Y24309605D01*
X14729410Y25029016D01*
X14673729Y25259611D01*
X14190922Y25427622D01*
X13680572Y25398083D01*
X13346271Y25259611D01*
X13290590Y25029016D01*
X11733062Y25029016D01*
X10023443Y26738635D01*
X10288834Y27003563D01*
X10540713Y27610155D01*
X10541286Y28266963D01*
X10290466Y28873995D01*
X9826437Y29338834D01*
X9219845Y29590713D01*
X8563037Y29591286D01*
X7956005Y29340466D01*
X7491166Y28876437D01*
X7239287Y28269845D01*
X7238714Y27613037D01*
X7489534Y27006005D01*
X7950200Y26544535D01*
X7950200Y26543000D01*
X8021738Y26183354D01*
X8225461Y25878461D01*
X12924461Y21179461D01*
X13229354Y20975738D01*
X13589000Y20904200D01*
X15612722Y20904200D01*
X18364200Y18152722D01*
X18364200Y17889878D01*
X15904539Y20349539D01*
X15599646Y20553262D01*
X15240000Y20624800D01*
X13089278Y20624800D01*
X10541274Y23172804D01*
X10541286Y23186963D01*
X10290466Y23793995D01*
X9826437Y24258834D01*
X9219845Y24510713D01*
X8563037Y24511286D01*
X7956005Y24260466D01*
X7876441Y24181040D01*
X7564564Y24493461D01*
X7055702Y24704759D01*
X6504715Y24705240D01*
X5995485Y24494831D01*
X5605539Y24105564D01*
X5394241Y23596702D01*
X5393760Y23045715D01*
X5604169Y22536485D01*
X5820313Y22319964D01*
X5605539Y22105564D01*
X5394241Y21596702D01*
X5393760Y21045715D01*
X5604169Y20536485D01*
X5820313Y20319964D01*
X5605539Y20105564D01*
X5394241Y19596702D01*
X5393760Y19045715D01*
X5602207Y18541233D01*
X5490673Y18429698D01*
X5394000Y18196309D01*
X5394000Y17605750D01*
X5552750Y17447000D01*
X6652000Y17447000D01*
X6652000Y17467000D01*
X6906000Y17467000D01*
X6906000Y17447000D01*
X6926000Y17447000D01*
X6926000Y17193000D01*
X6906000Y17193000D01*
X6906000Y16093750D01*
X7064750Y15935000D01*
X7655310Y15935000D01*
X7888699Y16031673D01*
X8067327Y16210302D01*
X8111019Y16315784D01*
X8560155Y16129287D01*
X9216963Y16128714D01*
X9241895Y16139016D01*
X13290590Y16139016D01*
X14010000Y15419605D01*
X14729410Y16139016D01*
X14673729Y16369611D01*
X14190922Y16537622D01*
X13680572Y16508083D01*
X13346271Y16369611D01*
X13290590Y16139016D01*
X9241895Y16139016D01*
X9823995Y16379534D01*
X10285465Y16840200D01*
X15231722Y16840200D01*
X15570200Y16501722D01*
X15570200Y16458103D01*
X15408559Y16354090D01*
X15263569Y16141890D01*
X15212560Y15890000D01*
X15212560Y15727615D01*
X15139611Y15903729D01*
X14909016Y15959410D01*
X14189605Y15240000D01*
X14909016Y14520590D01*
X15139611Y14576271D01*
X15212560Y14785902D01*
X15212560Y14590000D01*
X15256838Y14354683D01*
X15395910Y14138559D01*
X15608110Y13993569D01*
X15860000Y13942560D01*
X17160000Y13942560D01*
X17395317Y13986838D01*
X17611441Y14125910D01*
X17756431Y14338110D01*
X17807440Y14590000D01*
X17807440Y15788482D01*
X22673449Y10922473D01*
X22590000Y10797582D01*
X22334698Y11179668D01*
X21869151Y11490737D01*
X21320000Y11599970D01*
X20770849Y11490737D01*
X20305302Y11179668D01*
X19994233Y10714121D01*
X19885000Y10164970D01*
X19885000Y9674078D01*
X19405722Y9194800D01*
X18323103Y9194800D01*
X18219090Y9356441D01*
X18006890Y9501431D01*
X17755000Y9552440D01*
X16455000Y9552440D01*
X16219683Y9508162D01*
X16003559Y9369090D01*
X15858569Y9156890D01*
X15807560Y8905000D01*
X15807560Y7605000D01*
X15851838Y7369683D01*
X15968659Y7188137D01*
X14800322Y6019800D01*
X12166343Y6019800D01*
X11722073Y6464846D01*
X11121547Y6714206D01*
X10471306Y6714774D01*
X9870345Y6466462D01*
X9410154Y6007073D01*
X9160794Y5406547D01*
X9160226Y4756306D01*
X9408538Y4155345D01*
X9867927Y3695154D01*
X10468453Y3445794D01*
X11118694Y3445226D01*
X11719655Y3693538D01*
X12167097Y4140200D01*
X15189600Y4140200D01*
X15549246Y4211738D01*
X15854139Y4415461D01*
X17769539Y6330861D01*
X17973262Y6635754D01*
X18044800Y6995400D01*
X18044800Y7036897D01*
X18206441Y7140910D01*
X18325528Y7315200D01*
X19795000Y7315200D01*
X20154646Y7386738D01*
X20459539Y7590461D01*
X20910552Y8041474D01*
X21320000Y7960030D01*
X21813847Y8058262D01*
X21796197Y8015756D01*
X21795803Y7564225D01*
X21968233Y7146914D01*
X22287235Y6827355D01*
X22704244Y6654197D01*
X23155775Y6653803D01*
X23290430Y6709441D01*
X23310161Y6239540D01*
X23494357Y5794852D01*
X23750841Y5708446D01*
X24651395Y6609000D01*
X24637253Y6623142D01*
X24816858Y6802747D01*
X24831000Y6788605D01*
X24845143Y6802747D01*
X25024748Y6623142D01*
X25010605Y6609000D01*
X25911159Y5708446D01*
X26167643Y5794852D01*
X26219009Y5935249D01*
X26511839Y5641907D01*
X27204405Y5354328D01*
X27954305Y5353674D01*
X28647372Y5640043D01*
X28938218Y5930382D01*
X28994357Y5794852D01*
X29250841Y5708446D01*
X30151395Y6609000D01*
X30137253Y6623142D01*
X30316858Y6802747D01*
X30331000Y6788605D01*
X30345143Y6802747D01*
X30524748Y6623142D01*
X30510605Y6609000D01*
X31411159Y5708446D01*
X31667643Y5794852D01*
X31763824Y6057742D01*
X33579283Y4242283D01*
X33639981Y4201726D01*
X33540154Y4102073D01*
X33290794Y3501547D01*
X33290226Y2851306D01*
X33538538Y2250345D01*
X33875295Y1913000D01*
X28720456Y1913000D01*
X29178093Y2369839D01*
X29377907Y2851043D01*
X29460357Y2768449D01*
X30024330Y2534267D01*
X30634991Y2533735D01*
X31199371Y2766932D01*
X31631551Y3198357D01*
X31865733Y3762330D01*
X31866265Y4372991D01*
X31633068Y4937371D01*
X31201643Y5369551D01*
X31180806Y5378203D01*
X31231554Y5528841D01*
X30331000Y6429395D01*
X29430446Y5528841D01*
X29481035Y5378673D01*
X29462629Y5371068D01*
X29030449Y4939643D01*
X28947018Y4738718D01*
X28650161Y5036093D01*
X27957595Y5323672D01*
X27207695Y5324326D01*
X26514628Y5037957D01*
X26215067Y4738918D01*
X26133068Y4937371D01*
X25701643Y5369551D01*
X25680806Y5378203D01*
X25731554Y5528841D01*
X24831000Y6429395D01*
X23930446Y5528841D01*
X23981035Y5378673D01*
X23962629Y5371068D01*
X23530449Y4939643D01*
X23516977Y4907200D01*
X22589340Y4907200D01*
X22589774Y5403694D01*
X22341462Y6004655D01*
X21882073Y6464846D01*
X21281547Y6714206D01*
X20631306Y6714774D01*
X20030345Y6466462D01*
X19570154Y6007073D01*
X19320794Y5406547D01*
X19320226Y4756306D01*
X19568538Y4155345D01*
X20027927Y3695154D01*
X20628453Y3445794D01*
X21278694Y3445226D01*
X21367632Y3481974D01*
X21373303Y3476303D01*
X21645235Y3294604D01*
X21966000Y3230800D01*
X23516466Y3230800D01*
X23528932Y3200629D01*
X23960357Y2768449D01*
X24524330Y2534267D01*
X25134991Y2533735D01*
X25699371Y2766932D01*
X25784151Y2851564D01*
X25982043Y2372628D01*
X26440870Y1913000D01*
X6573670Y1913000D01*
X5893929Y1979985D01*
X5272632Y2168429D01*
X4700122Y2474413D01*
X4198285Y2886304D01*
X3786429Y3388114D01*
X3480399Y3960694D01*
X3291948Y4581979D01*
X3225000Y5261654D01*
X3225000Y5295165D01*
X4258291Y5295165D01*
X4264904Y5228000D01*
X4258291Y5160835D01*
X4289041Y4848735D01*
X4308620Y4784200D01*
X4315227Y4717084D01*
X4406277Y4416884D01*
X4438092Y4357357D01*
X4457687Y4292769D01*
X4605547Y4016169D01*
X4648317Y3964058D01*
X4680090Y3904599D01*
X4879060Y3662099D01*
X4931288Y3619227D01*
X4974167Y3567000D01*
X5216627Y3368100D01*
X5276037Y3336360D01*
X5328099Y3293623D01*
X5604720Y3145723D01*
X5669369Y3126103D01*
X5728954Y3094266D01*
X6029104Y3003266D01*
X6096134Y2996674D01*
X6160587Y2977110D01*
X6472737Y2946310D01*
X6540005Y2952923D01*
X6607267Y2946311D01*
X6919397Y2977111D01*
X6983843Y2996673D01*
X7050870Y3003264D01*
X7351030Y3094264D01*
X7410623Y3126105D01*
X7475280Y3145728D01*
X7751890Y3293628D01*
X7803947Y3336362D01*
X7863353Y3368100D01*
X8105813Y3567000D01*
X8148688Y3619222D01*
X8200909Y3662086D01*
X8399889Y3904586D01*
X8431667Y3964051D01*
X8474443Y4016169D01*
X8622303Y4292769D01*
X8641901Y4357367D01*
X8673719Y4416904D01*
X8764759Y4717104D01*
X8771363Y4784210D01*
X8790939Y4848735D01*
X8821689Y5160835D01*
X8815076Y5228000D01*
X8821689Y5295165D01*
X8790939Y5607265D01*
X8771363Y5671790D01*
X8764759Y5738896D01*
X8673719Y6039096D01*
X8641901Y6098633D01*
X8622303Y6163231D01*
X8474443Y6439831D01*
X8431667Y6491949D01*
X8399889Y6551414D01*
X8200909Y6793914D01*
X8148751Y6836726D01*
X8105943Y6888893D01*
X7863483Y7087893D01*
X7803926Y7119730D01*
X7751720Y7162562D01*
X7475110Y7310362D01*
X7410640Y7329909D01*
X7361874Y7355984D01*
X11385590Y7355984D01*
X11441271Y7125389D01*
X11924078Y6957378D01*
X12434428Y6986917D01*
X12768729Y7125389D01*
X12824410Y7355984D01*
X12105000Y8075395D01*
X11385590Y7355984D01*
X7361874Y7355984D01*
X7351230Y7361675D01*
X7051070Y7452775D01*
X6983834Y7459407D01*
X6919176Y7479011D01*
X6607026Y7509711D01*
X6539975Y7503097D01*
X6472929Y7509710D01*
X6160799Y7479011D01*
X6096141Y7459406D01*
X6028904Y7452774D01*
X5728754Y7361673D01*
X5669355Y7329912D01*
X5604890Y7310368D01*
X5328269Y7162567D01*
X5276055Y7119730D01*
X5216497Y7087892D01*
X4974037Y6888893D01*
X4931225Y6836721D01*
X4879060Y6793901D01*
X4680090Y6551401D01*
X4648317Y6491942D01*
X4605547Y6439831D01*
X4457687Y6163231D01*
X4438092Y6098643D01*
X4406277Y6039116D01*
X4315227Y5738916D01*
X4308620Y5671800D01*
X4289041Y5607265D01*
X4258291Y5295165D01*
X3225000Y5295165D01*
X3225000Y8435922D01*
X10807378Y8435922D01*
X10836917Y7925572D01*
X10975389Y7591271D01*
X11205984Y7535590D01*
X11925395Y8255000D01*
X12284605Y8255000D01*
X13004016Y7535590D01*
X13234611Y7591271D01*
X13402622Y8074078D01*
X13373083Y8584428D01*
X13234611Y8918729D01*
X13004016Y8974410D01*
X12284605Y8255000D01*
X11925395Y8255000D01*
X11205984Y8974410D01*
X10975389Y8918729D01*
X10807378Y8435922D01*
X3225000Y8435922D01*
X3225000Y9154016D01*
X11385590Y9154016D01*
X12105000Y8434605D01*
X12824410Y9154016D01*
X12768729Y9384611D01*
X12285922Y9552622D01*
X11775572Y9523083D01*
X11441271Y9384611D01*
X11385590Y9154016D01*
X3225000Y9154016D01*
X3225000Y12414250D01*
X7239000Y12414250D01*
X7239000Y11557691D01*
X7335673Y11324302D01*
X7514301Y11145673D01*
X7747690Y11049000D01*
X8604250Y11049000D01*
X8763000Y11207750D01*
X8763000Y12573000D01*
X9017000Y12573000D01*
X9017000Y11207750D01*
X9175750Y11049000D01*
X10032310Y11049000D01*
X10265699Y11145673D01*
X10444327Y11324302D01*
X10541000Y11557691D01*
X10541000Y12414250D01*
X10382250Y12573000D01*
X9017000Y12573000D01*
X8763000Y12573000D01*
X7397750Y12573000D01*
X7239000Y12414250D01*
X3225000Y12414250D01*
X3225000Y13842309D01*
X7239000Y13842309D01*
X7239000Y12985750D01*
X7397750Y12827000D01*
X8763000Y12827000D01*
X8763000Y14192250D01*
X9017000Y14192250D01*
X9017000Y12827000D01*
X10382250Y12827000D01*
X10541000Y12985750D01*
X10541000Y13842309D01*
X10444327Y14075698D01*
X10265699Y14254327D01*
X10056491Y14340984D01*
X13290590Y14340984D01*
X13346271Y14110389D01*
X13829078Y13942378D01*
X14339428Y13971917D01*
X14673729Y14110389D01*
X14729410Y14340984D01*
X14010000Y15060395D01*
X13290590Y14340984D01*
X10056491Y14340984D01*
X10032310Y14351000D01*
X9175750Y14351000D01*
X9017000Y14192250D01*
X8763000Y14192250D01*
X8604250Y14351000D01*
X7747690Y14351000D01*
X7514301Y14254327D01*
X7335673Y14075698D01*
X7239000Y13842309D01*
X3225000Y13842309D01*
X3225000Y15420922D01*
X12712378Y15420922D01*
X12741917Y14910572D01*
X12880389Y14576271D01*
X13110984Y14520590D01*
X13830395Y15240000D01*
X13110984Y15959410D01*
X12880389Y15903729D01*
X12712378Y15420922D01*
X3225000Y15420922D01*
X3225000Y17034250D01*
X5394000Y17034250D01*
X5394000Y16443691D01*
X5490673Y16210302D01*
X5669301Y16031673D01*
X5902690Y15935000D01*
X6493250Y15935000D01*
X6652000Y16093750D01*
X6652000Y17193000D01*
X5552750Y17193000D01*
X5394000Y17034250D01*
X3225000Y17034250D01*
X3225000Y37091759D01*
X9544994Y37091759D01*
X9831314Y36398809D01*
X10361021Y35868178D01*
X11053469Y35580648D01*
X11803241Y35579994D01*
X12496191Y35866314D01*
X12570360Y35940354D01*
X14727341Y35940354D01*
X14846695Y35687000D01*
X16891000Y35687000D01*
X16891000Y37194490D01*
X17145000Y37194490D01*
X17145000Y35687000D01*
X19189305Y35687000D01*
X19308659Y35940354D01*
X19277713Y36068159D01*
X18964602Y36625956D01*
X18461865Y37021471D01*
X17846040Y37194490D01*
X17145000Y37194490D01*
X16891000Y37194490D01*
X16189960Y37194490D01*
X15574135Y37021471D01*
X15071398Y36625956D01*
X14758287Y36068159D01*
X14727341Y35940354D01*
X12570360Y35940354D01*
X13026822Y36396021D01*
X13314352Y37088469D01*
X13315006Y37838241D01*
X13293846Y37889452D01*
X13331161Y37926767D01*
X13598508Y37748132D01*
X14224000Y37623714D01*
X14849492Y37748132D01*
X15379759Y38102445D01*
X15734072Y38632712D01*
X15858490Y39258204D01*
X15858490Y39878000D01*
X18884900Y39878000D01*
X18884900Y38478460D01*
X19042741Y37938938D01*
X19395033Y37500888D01*
X19888143Y37230999D01*
X19970945Y37213457D01*
X20193000Y37335444D01*
X20193000Y39878000D01*
X20447000Y39878000D01*
X20447000Y37335444D01*
X20669055Y37213457D01*
X20751857Y37230999D01*
X21244967Y37500888D01*
X21597259Y37938938D01*
X21755100Y38478460D01*
X21755100Y39878000D01*
X20447000Y39878000D01*
X20193000Y39878000D01*
X18884900Y39878000D01*
X15858490Y39878000D01*
X15858490Y40751796D01*
X15826367Y40913289D01*
X17407278Y42494200D01*
X19383040Y42494200D01*
X19042741Y42071062D01*
X18884900Y41531540D01*
X18884900Y40132000D01*
X20193000Y40132000D01*
X20193000Y40152000D01*
X20447000Y40152000D01*
X20447000Y40132000D01*
X21755100Y40132000D01*
X21755100Y41531540D01*
X21597259Y42071062D01*
X21256960Y42494200D01*
X22470722Y42494200D01*
X22663546Y42301376D01*
X22606332Y42163590D01*
X22605670Y41405735D01*
X22895078Y40705314D01*
X23430495Y40168961D01*
X24130410Y39878332D01*
X24888265Y39877670D01*
X25588686Y40167078D01*
X26125039Y40702495D01*
X26415668Y41402410D01*
X26416330Y42160265D01*
X26126922Y42860686D01*
X25591505Y43397039D01*
X24891590Y43687668D01*
X24133735Y43688330D01*
X23992928Y43630150D01*
X23888078Y43735000D01*
X31939857Y43735000D01*
X31939857Y47295046D01*
X46258289Y47295046D01*
X46264902Y47228000D01*
X46258289Y47160949D01*
X46288989Y46848820D01*
X46308593Y46784163D01*
X46315225Y46716930D01*
X46406325Y46416770D01*
X46438091Y46357360D01*
X46457638Y46292890D01*
X46605438Y46016280D01*
X46648270Y45964074D01*
X46680107Y45904517D01*
X46879107Y45662057D01*
X46931274Y45619249D01*
X46974086Y45567091D01*
X47216586Y45368111D01*
X47276051Y45336333D01*
X47328169Y45293557D01*
X47604769Y45145697D01*
X47669367Y45126099D01*
X47728904Y45094281D01*
X48029104Y45003241D01*
X48096210Y44996637D01*
X48160735Y44977061D01*
X48472835Y44946311D01*
X48540000Y44952924D01*
X48607165Y44946311D01*
X48919265Y44977061D01*
X48983790Y44996637D01*
X49050896Y45003241D01*
X49351096Y45094281D01*
X49410633Y45126099D01*
X49475231Y45145697D01*
X49751831Y45293557D01*
X49803949Y45336333D01*
X49863414Y45368111D01*
X50105915Y45567091D01*
X50148781Y45619314D01*
X50201000Y45662187D01*
X50399900Y45904647D01*
X50431638Y45964053D01*
X50474372Y46016110D01*
X50622272Y46292720D01*
X50641895Y46357377D01*
X50673736Y46416970D01*
X50764736Y46717130D01*
X50771327Y46784157D01*
X50790889Y46848603D01*
X50821689Y47160733D01*
X50815077Y47227995D01*
X50821690Y47295263D01*
X50790890Y47607413D01*
X50771326Y47671866D01*
X50764734Y47738896D01*
X50673734Y48039046D01*
X50641897Y48098631D01*
X50622277Y48163280D01*
X50474377Y48439901D01*
X50431640Y48491963D01*
X50399900Y48551373D01*
X50201000Y48793833D01*
X50148773Y48836712D01*
X50105901Y48888940D01*
X49863401Y49087910D01*
X49803942Y49119683D01*
X49751831Y49162453D01*
X49475231Y49310313D01*
X49410643Y49329908D01*
X49351116Y49361723D01*
X49050916Y49452773D01*
X48983800Y49459380D01*
X48919265Y49478959D01*
X48607165Y49509709D01*
X48540000Y49503096D01*
X48472835Y49509709D01*
X48160735Y49478959D01*
X48096200Y49459380D01*
X48029084Y49452773D01*
X47728884Y49361723D01*
X47669357Y49329908D01*
X47604769Y49310313D01*
X47328169Y49162453D01*
X47276058Y49119683D01*
X47216599Y49087910D01*
X46974099Y48888940D01*
X46931280Y48836776D01*
X46879107Y48793963D01*
X46680107Y48551503D01*
X46648268Y48491942D01*
X46605433Y48439731D01*
X46457633Y48163111D01*
X46438089Y48098647D01*
X46406327Y48039246D01*
X46315227Y47739096D01*
X46308594Y47671858D01*
X46288989Y47607196D01*
X46258289Y47295046D01*
X31939857Y47295046D01*
X31939857Y47555000D01*
X20384144Y47555000D01*
X20384144Y44373800D01*
X17018000Y44373800D01*
X16658354Y44302262D01*
X16353461Y44098539D01*
X14571989Y42317067D01*
X14224000Y42386286D01*
X13598508Y42261868D01*
X13314680Y42072220D01*
X13314680Y42259250D01*
X13155930Y42418000D01*
X11557000Y42418000D01*
X11557000Y40819070D01*
X11715750Y40660320D01*
X12589510Y40660320D01*
X12589510Y39555904D01*
X12213832Y39180226D01*
X11806531Y39349352D01*
X11056759Y39350006D01*
X10363809Y39063686D01*
X9833178Y38533979D01*
X9545648Y37841531D01*
X9544994Y37091759D01*
X3225000Y37091759D01*
X3225000Y42259250D01*
X9545320Y42259250D01*
X9545320Y41169011D01*
X9641993Y40935622D01*
X9820621Y40756993D01*
X10054010Y40660320D01*
X11144250Y40660320D01*
X11303000Y40819070D01*
X11303000Y42418000D01*
X9704070Y42418000D01*
X9545320Y42259250D01*
X3225000Y42259250D01*
X3225000Y43920989D01*
X9545320Y43920989D01*
X9545320Y42830750D01*
X9704070Y42672000D01*
X11303000Y42672000D01*
X11303000Y44270930D01*
X11557000Y44270930D01*
X11557000Y42672000D01*
X13155930Y42672000D01*
X13314680Y42830750D01*
X13314680Y43920989D01*
X13218007Y44154378D01*
X13039379Y44333007D01*
X12805990Y44429680D01*
X11715750Y44429680D01*
X11557000Y44270930D01*
X11303000Y44270930D01*
X11144250Y44429680D01*
X10054010Y44429680D01*
X9820621Y44333007D01*
X9641993Y44154378D01*
X9545320Y43920989D01*
X3225000Y43920989D01*
X3225000Y47194343D01*
X3234929Y47295155D01*
X4258290Y47295155D01*
X4264903Y47228001D01*
X4258290Y47160841D01*
X4289040Y46848711D01*
X4308623Y46784161D01*
X4315234Y46717030D01*
X4406284Y46416870D01*
X4438093Y46357359D01*
X4457682Y46292788D01*
X4605542Y46016178D01*
X4648332Y45964041D01*
X4680125Y45904556D01*
X4879095Y45662096D01*
X4931256Y45619286D01*
X4974063Y45567126D01*
X5216523Y45368146D01*
X5276018Y45336345D01*
X5328167Y45293547D01*
X5604787Y45145687D01*
X5669361Y45126098D01*
X5728874Y45094290D01*
X6029024Y45003250D01*
X6096150Y44996641D01*
X6160695Y44977060D01*
X6472846Y44946310D01*
X6540000Y44952923D01*
X6607159Y44946310D01*
X6919289Y44977060D01*
X6983830Y44996640D01*
X7050950Y45003248D01*
X7351110Y45094288D01*
X7410631Y45126100D01*
X7475212Y45145692D01*
X7751822Y45293552D01*
X7803966Y45336348D01*
X7863457Y45368146D01*
X8105917Y45567126D01*
X8148719Y45619281D01*
X8200874Y45662083D01*
X8399854Y45904543D01*
X8431652Y45964034D01*
X8474448Y46016178D01*
X8622308Y46292788D01*
X8641900Y46357369D01*
X8673712Y46416890D01*
X8764752Y46717050D01*
X8771360Y46784171D01*
X8790940Y46848711D01*
X8821690Y47160841D01*
X8815077Y47228000D01*
X8821690Y47295154D01*
X8790940Y47607305D01*
X8771359Y47671850D01*
X8764750Y47738976D01*
X8673710Y48039126D01*
X8641902Y48098639D01*
X8622313Y48163213D01*
X8474453Y48439833D01*
X8431655Y48491982D01*
X8399854Y48551477D01*
X8200874Y48793937D01*
X8148714Y48836744D01*
X8105904Y48888905D01*
X7863444Y49087875D01*
X7803959Y49119668D01*
X7751822Y49162458D01*
X7475212Y49310318D01*
X7410641Y49329907D01*
X7351130Y49361716D01*
X7050970Y49452766D01*
X6983835Y49459378D01*
X6919285Y49478960D01*
X6607135Y49509710D01*
X6539980Y49503097D01*
X6472821Y49509710D01*
X6160691Y49478960D01*
X6096137Y49459376D01*
X6029004Y49452764D01*
X5728854Y49361714D01*
X5669351Y49329909D01*
X5604787Y49310323D01*
X5328167Y49162463D01*
X5276025Y49119670D01*
X5216536Y49087875D01*
X4974076Y48888905D01*
X4931262Y48836738D01*
X4879095Y48793924D01*
X4680125Y48551464D01*
X4648330Y48491975D01*
X4605537Y48439833D01*
X4457677Y48163213D01*
X4438091Y48098649D01*
X4406286Y48039146D01*
X4315236Y47738996D01*
X4308624Y47671860D01*
X4289040Y47607305D01*
X4258290Y47295155D01*
X3234929Y47295155D01*
X3291949Y47874087D01*
X3480395Y48495345D01*
X3786427Y49067878D01*
X4198281Y49569718D01*
X4700125Y49981575D01*
X5272655Y50287605D01*
X5893919Y50476052D01*
X6573630Y50543000D01*
X48506346Y50543000D01*
X49186021Y50476052D01*
X49186021Y50476052D01*
G37*
X49186021Y50476052D02*
X49807306Y50287601D01*
X50379886Y49981571D01*
X50881696Y49569715D01*
X51293587Y49067878D01*
X51599571Y48495368D01*
X51788015Y47874071D01*
X51855000Y47194330D01*
X51855000Y5261677D01*
X51788015Y4581989D01*
X51599566Y3960670D01*
X51293582Y3388109D01*
X50881692Y2886308D01*
X50379888Y2474416D01*
X49807330Y2168434D01*
X49186011Y1979985D01*
X48506322Y1913000D01*
X46134334Y1913000D01*
X46469846Y2247927D01*
X46719206Y2848453D01*
X46719774Y3498694D01*
X46471462Y4099655D01*
X46012073Y4559846D01*
X45523568Y4762691D01*
X46009655Y4963538D01*
X46263847Y5217287D01*
X46258290Y5160943D01*
X46288990Y4848843D01*
X46308589Y4784204D01*
X46315217Y4716984D01*
X46406317Y4416785D01*
X46438089Y4357360D01*
X46457642Y4292871D01*
X46605442Y4016271D01*
X46648256Y3964088D01*
X46680072Y3904560D01*
X46879072Y3662060D01*
X46931306Y3619190D01*
X46974190Y3566965D01*
X47216690Y3368065D01*
X47276070Y3336347D01*
X47328101Y3293633D01*
X47604701Y3145733D01*
X47669375Y3126104D01*
X47728984Y3094257D01*
X48029184Y3003257D01*
X48096194Y2996670D01*
X48160627Y2977111D01*
X48472727Y2946311D01*
X48540000Y2952924D01*
X48607273Y2946311D01*
X48919373Y2977111D01*
X48983806Y2996670D01*
X49050816Y3003257D01*
X49351015Y3094257D01*
X49410624Y3126103D01*
X49475299Y3145733D01*
X49751899Y3293633D01*
X49803930Y3336347D01*
X49863310Y3368065D01*
X50105810Y3566965D01*
X50148747Y3619254D01*
X50201035Y3662190D01*
X50399935Y3904690D01*
X50431653Y3964070D01*
X50474367Y4016101D01*
X50622267Y4292701D01*
X50641896Y4357375D01*
X50673743Y4416984D01*
X50764743Y4717184D01*
X50771330Y4784194D01*
X50790889Y4848627D01*
X50821689Y5160727D01*
X50815076Y5228000D01*
X50821689Y5295273D01*
X50790889Y5607373D01*
X50771330Y5671806D01*
X50764743Y5738816D01*
X50673743Y6039016D01*
X50641896Y6098625D01*
X50622267Y6163299D01*
X50474367Y6439899D01*
X50431653Y6491930D01*
X50399935Y6551310D01*
X50201035Y6793810D01*
X50148810Y6836694D01*
X50105940Y6888928D01*
X49863440Y7087928D01*
X49803912Y7119744D01*
X49751729Y7162558D01*
X49475129Y7310358D01*
X49410640Y7329911D01*
X49351215Y7361683D01*
X49051016Y7452783D01*
X48983796Y7459411D01*
X48919157Y7479010D01*
X48607057Y7509710D01*
X48540000Y7503097D01*
X48472943Y7509710D01*
X48160843Y7479010D01*
X48096204Y7459411D01*
X48028984Y7452783D01*
X47728784Y7361683D01*
X47669358Y7329911D01*
X47604871Y7310358D01*
X47328271Y7162558D01*
X47276089Y7119745D01*
X47216559Y7087928D01*
X46974060Y6888928D01*
X46931242Y6836758D01*
X46879072Y6793940D01*
X46719709Y6599742D01*
X46719774Y6673694D01*
X46471462Y7274655D01*
X46012073Y7734846D01*
X45582640Y7913162D01*
X47477086Y9807608D01*
X47495332Y9780302D01*
X47960879Y9469233D01*
X48510030Y9360000D01*
X49279970Y9360000D01*
X49829121Y9469233D01*
X50294668Y9780302D01*
X50605737Y10245849D01*
X50714970Y10795000D01*
X50605737Y11344151D01*
X50294668Y11809698D01*
X49912582Y12065000D01*
X50294668Y12320302D01*
X50605737Y12785849D01*
X50714970Y13335000D01*
X50605737Y13884151D01*
X50294668Y14349698D01*
X49912582Y14605000D01*
X50294668Y14860302D01*
X50605737Y15325849D01*
X50714970Y15875000D01*
X50605737Y16424151D01*
X50294668Y16889698D01*
X49912582Y17145000D01*
X50294668Y17400302D01*
X50605737Y17865849D01*
X50714970Y18415000D01*
X50605737Y18964151D01*
X50294668Y19429698D01*
X49912582Y19685000D01*
X50294668Y19940302D01*
X50605737Y20405849D01*
X50714970Y20955000D01*
X50605737Y21504151D01*
X50294668Y21969698D01*
X49912582Y22225000D01*
X50294668Y22480302D01*
X50605737Y22945849D01*
X50714970Y23495000D01*
X50605737Y24044151D01*
X50294668Y24509698D01*
X49912582Y24765000D01*
X50294668Y25020302D01*
X50605737Y25485849D01*
X50714970Y26035000D01*
X50605737Y26584151D01*
X50294668Y27049698D01*
X49912582Y27305000D01*
X50294668Y27560302D01*
X50605737Y28025849D01*
X50714970Y28575000D01*
X50605737Y29124151D01*
X50294668Y29589698D01*
X49829121Y29900767D01*
X49279970Y30010000D01*
X48510030Y30010000D01*
X48125990Y29933610D01*
X48125990Y30177312D01*
X48924539Y30975861D01*
X49128262Y31280754D01*
X49199800Y31640400D01*
X49199800Y31681897D01*
X49361441Y31785910D01*
X49506431Y31998110D01*
X49557440Y32250000D01*
X49557440Y33550000D01*
X49513162Y33785317D01*
X49374090Y34001441D01*
X49199800Y34120528D01*
X49199800Y34159600D01*
X49128262Y34519246D01*
X48924539Y34824139D01*
X48079139Y35669539D01*
X47774246Y35873262D01*
X47414600Y35944800D01*
X44476775Y35944800D01*
X44426730Y36019698D01*
X44074576Y36255000D01*
X44426730Y36490302D01*
X44737799Y36955849D01*
X44746776Y37000984D01*
X47540590Y37000984D01*
X47596271Y36770389D01*
X48079078Y36602378D01*
X48589428Y36631917D01*
X48923729Y36770389D01*
X48979410Y37000984D01*
X48260000Y37720395D01*
X47540590Y37000984D01*
X44746776Y37000984D01*
X44847032Y37505000D01*
X44737799Y38054151D01*
X44719912Y38080922D01*
X46962378Y38080922D01*
X46991917Y37570572D01*
X47130389Y37236271D01*
X47360984Y37180590D01*
X48080395Y37900000D01*
X48439605Y37900000D01*
X49159016Y37180590D01*
X49389611Y37236271D01*
X49557622Y37719078D01*
X49528083Y38229428D01*
X49389611Y38563729D01*
X49159016Y38619410D01*
X48439605Y37900000D01*
X48080395Y37900000D01*
X47360984Y38619410D01*
X47130389Y38563729D01*
X46962378Y38080922D01*
X44719912Y38080922D01*
X44426730Y38519698D01*
X44074576Y38755000D01*
X44140450Y38799016D01*
X47540590Y38799016D01*
X48260000Y38079605D01*
X48979410Y38799016D01*
X48923729Y39029611D01*
X48440922Y39197622D01*
X47930572Y39168083D01*
X47596271Y39029611D01*
X47540590Y38799016D01*
X44140450Y38799016D01*
X44426730Y38990302D01*
X44737799Y39455849D01*
X44847032Y40005000D01*
X44737799Y40554151D01*
X44426730Y41019698D01*
X44074576Y41255000D01*
X44426730Y41490302D01*
X44737799Y41955849D01*
X44847032Y42505000D01*
X44737799Y43054151D01*
X44426730Y43519698D01*
X44074576Y43755000D01*
X44426730Y43990302D01*
X44737799Y44455849D01*
X44847032Y45005000D01*
X44737799Y45554151D01*
X44426730Y46019698D01*
X43961183Y46330767D01*
X43412032Y46440000D01*
X42947968Y46440000D01*
X42398817Y46330767D01*
X41933270Y46019698D01*
X41622201Y45554151D01*
X41512968Y45005000D01*
X41622201Y44455849D01*
X41933270Y43990302D01*
X42285424Y43755000D01*
X41933270Y43519698D01*
X41622201Y43054151D01*
X41512968Y42505000D01*
X41622201Y41955849D01*
X41933270Y41490302D01*
X42285424Y41255000D01*
X41933270Y41019698D01*
X41622201Y40554151D01*
X41512968Y40005000D01*
X41622201Y39455849D01*
X41933270Y38990302D01*
X42285424Y38755000D01*
X41933270Y38519698D01*
X41622201Y38054151D01*
X41512968Y37505000D01*
X41622201Y36955849D01*
X41933270Y36490302D01*
X42285424Y36255000D01*
X41933270Y36019698D01*
X41883225Y35944800D01*
X37266278Y35944800D01*
X33193807Y40017271D01*
X33528410Y39878332D01*
X34286265Y39877670D01*
X34986686Y40167078D01*
X35523039Y40702495D01*
X35813668Y41402410D01*
X35814330Y42160265D01*
X35524922Y42860686D01*
X34989505Y43397039D01*
X34289590Y43687668D01*
X33531735Y43688330D01*
X32831314Y43398922D01*
X32294961Y42863505D01*
X32004332Y42163590D01*
X32003670Y41405735D01*
X32241392Y40830405D01*
X31917216Y40830687D01*
X31520311Y40666689D01*
X31216378Y40363286D01*
X31051687Y39966668D01*
X31051313Y39537216D01*
X31215311Y39140311D01*
X31518714Y38836378D01*
X31857023Y38695899D01*
X36212461Y34340461D01*
X36517354Y34136738D01*
X36877000Y34065200D01*
X41883225Y34065200D01*
X41933270Y33990302D01*
X42120632Y33865110D01*
X36952862Y28697340D01*
X36749139Y28392447D01*
X36677601Y28032801D01*
X36677601Y26593800D01*
X23122278Y26593800D01*
X21191539Y28524539D01*
X20886646Y28728262D01*
X20527000Y28799800D01*
X19718470Y28799800D01*
X19691779Y28839746D01*
X19242268Y29140100D01*
X19232968Y29141950D01*
X19322677Y29168501D01*
X19744658Y29510056D01*
X19955400Y29897985D01*
X32404641Y29897985D01*
X32789746Y28965959D01*
X33502208Y28252252D01*
X34433561Y27865521D01*
X35442015Y27864641D01*
X36374041Y28249746D01*
X37087748Y28962208D01*
X37474479Y29893561D01*
X37475359Y30902015D01*
X37090254Y31834041D01*
X36377792Y32547748D01*
X35446439Y32934479D01*
X34437985Y32935359D01*
X33505959Y32550254D01*
X32792252Y31837792D01*
X32405521Y30906439D01*
X32404641Y29897985D01*
X19955400Y29897985D01*
X20003810Y29987097D01*
X20017993Y30058725D01*
X19895339Y30273000D01*
X18303000Y30273000D01*
X18303000Y30253000D01*
X18049000Y30253000D01*
X18049000Y30273000D01*
X18029000Y30273000D01*
X18029000Y30527000D01*
X18049000Y30527000D01*
X18049000Y30547000D01*
X18303000Y30547000D01*
X18303000Y30527000D01*
X19895339Y30527000D01*
X20017993Y30741275D01*
X20003810Y30812903D01*
X19744658Y31289944D01*
X19322677Y31631499D01*
X19232968Y31658050D01*
X19242268Y31659900D01*
X19691779Y31960254D01*
X19992133Y32409765D01*
X20097603Y32940000D01*
X19992133Y33470235D01*
X19691779Y33919746D01*
X19242268Y34220100D01*
X18742702Y34319470D01*
X18964602Y34494044D01*
X19277713Y35051841D01*
X19308659Y35179646D01*
X19189305Y35433000D01*
X17145000Y35433000D01*
X17145000Y35413000D01*
X16891000Y35413000D01*
X16891000Y35433000D01*
X14846695Y35433000D01*
X14727341Y35179646D01*
X14758287Y35051841D01*
X15071398Y34494044D01*
X15574135Y34098529D01*
X16189960Y33925510D01*
X16668847Y33925510D01*
X16660221Y33919746D01*
X16633530Y33879800D01*
X16430000Y33879800D01*
X16070354Y33808262D01*
X15765461Y33604539D01*
X15337461Y33176539D01*
X15133738Y32871646D01*
X15062200Y32512000D01*
X15062200Y26162000D01*
X15133738Y25802354D01*
X15337461Y25497461D01*
X15519466Y25315456D01*
X15408559Y25244090D01*
X15263569Y25031890D01*
X15212560Y24780000D01*
X15212560Y24617615D01*
X15139611Y24793729D01*
X14909016Y24849410D01*
X14189605Y24130000D01*
X14909016Y23410590D01*
X15139611Y23466271D01*
X15212560Y23675902D01*
X15212560Y23480000D01*
X15256838Y23244683D01*
X15395910Y23028559D01*
X15608110Y22883569D01*
X15860000Y22832560D01*
X17160000Y22832560D01*
X17395317Y22876838D01*
X17611441Y23015910D01*
X17756431Y23228110D01*
X17807440Y23480000D01*
X17807440Y24780000D01*
X17763162Y25015317D01*
X17624090Y25231441D01*
X17449800Y25350528D01*
X17449800Y25654000D01*
X17378262Y26013646D01*
X17174539Y26318539D01*
X16941800Y26551278D01*
X16941800Y26692109D01*
X17109732Y26579900D01*
X17639967Y26474430D01*
X18712033Y26474430D01*
X19242268Y26579900D01*
X19691779Y26880254D01*
X19718470Y26920200D01*
X20137722Y26920200D01*
X22068461Y24989461D01*
X22373354Y24785738D01*
X22733000Y24714200D01*
X24274137Y24714200D01*
X24154311Y24664689D01*
X23850378Y24361286D01*
X23709899Y24022977D01*
X23084461Y23397539D01*
X22880738Y23092646D01*
X22809200Y22733000D01*
X22809200Y20066000D01*
X22880738Y19706354D01*
X23084461Y19401461D01*
X23364511Y19121411D01*
X23310849Y19110737D01*
X22845302Y18799668D01*
X22592851Y18421849D01*
X22244896Y18854500D01*
X21751819Y19124367D01*
X21669039Y19141904D01*
X21447000Y19019915D01*
X21447000Y17527000D01*
X21467000Y17527000D01*
X21467000Y17273000D01*
X21447000Y17273000D01*
X21447000Y17253000D01*
X21193000Y17253000D01*
X21193000Y17273000D01*
X21173000Y17273000D01*
X21173000Y17527000D01*
X21193000Y17527000D01*
X21193000Y19019915D01*
X20970961Y19141904D01*
X20888181Y19124367D01*
X20395104Y18854500D01*
X20223967Y18641706D01*
X20172262Y18901646D01*
X19968539Y19206539D01*
X16666539Y22508539D01*
X16361646Y22712262D01*
X16002000Y22783800D01*
X13978278Y22783800D01*
X13924195Y22837883D01*
X14339428Y22861917D01*
X14673729Y23000389D01*
X14729410Y23230984D01*
X14010000Y23950395D01*
X13995858Y23936252D01*
X13816252Y24115858D01*
X13830395Y24130000D01*
X13110984Y24849410D01*
X12880389Y24793729D01*
X12712378Y24310922D01*
X12728426Y24033652D01*
X11733062Y25029016D01*
X13290590Y25029016D01*
X14010000Y24309605D01*
X14729410Y25029016D01*
X14673729Y25259611D01*
X14190922Y25427622D01*
X13680572Y25398083D01*
X13346271Y25259611D01*
X13290590Y25029016D01*
X11733062Y25029016D01*
X10023443Y26738635D01*
X10288834Y27003563D01*
X10540713Y27610155D01*
X10541286Y28266963D01*
X10290466Y28873995D01*
X9826437Y29338834D01*
X9219845Y29590713D01*
X8563037Y29591286D01*
X7956005Y29340466D01*
X7491166Y28876437D01*
X7239287Y28269845D01*
X7238714Y27613037D01*
X7489534Y27006005D01*
X7950200Y26544535D01*
X7950200Y26543000D01*
X8021738Y26183354D01*
X8225461Y25878461D01*
X12924461Y21179461D01*
X13229354Y20975738D01*
X13589000Y20904200D01*
X15612722Y20904200D01*
X18364200Y18152722D01*
X18364200Y17889878D01*
X15904539Y20349539D01*
X15599646Y20553262D01*
X15240000Y20624800D01*
X13089278Y20624800D01*
X10541274Y23172804D01*
X10541286Y23186963D01*
X10290466Y23793995D01*
X9826437Y24258834D01*
X9219845Y24510713D01*
X8563037Y24511286D01*
X7956005Y24260466D01*
X7876441Y24181040D01*
X7564564Y24493461D01*
X7055702Y24704759D01*
X6504715Y24705240D01*
X5995485Y24494831D01*
X5605539Y24105564D01*
X5394241Y23596702D01*
X5393760Y23045715D01*
X5604169Y22536485D01*
X5820313Y22319964D01*
X5605539Y22105564D01*
X5394241Y21596702D01*
X5393760Y21045715D01*
X5604169Y20536485D01*
X5820313Y20319964D01*
X5605539Y20105564D01*
X5394241Y19596702D01*
X5393760Y19045715D01*
X5602207Y18541233D01*
X5490673Y18429698D01*
X5394000Y18196309D01*
X5394000Y17605750D01*
X5552750Y17447000D01*
X6652000Y17447000D01*
X6652000Y17467000D01*
X6906000Y17467000D01*
X6906000Y17447000D01*
X6926000Y17447000D01*
X6926000Y17193000D01*
X6906000Y17193000D01*
X6906000Y16093750D01*
X7064750Y15935000D01*
X7655310Y15935000D01*
X7888699Y16031673D01*
X8067327Y16210302D01*
X8111019Y16315784D01*
X8560155Y16129287D01*
X9216963Y16128714D01*
X9241895Y16139016D01*
X13290590Y16139016D01*
X14010000Y15419605D01*
X14729410Y16139016D01*
X14673729Y16369611D01*
X14190922Y16537622D01*
X13680572Y16508083D01*
X13346271Y16369611D01*
X13290590Y16139016D01*
X9241895Y16139016D01*
X9823995Y16379534D01*
X10285465Y16840200D01*
X15231722Y16840200D01*
X15570200Y16501722D01*
X15570200Y16458103D01*
X15408559Y16354090D01*
X15263569Y16141890D01*
X15212560Y15890000D01*
X15212560Y15727615D01*
X15139611Y15903729D01*
X14909016Y15959410D01*
X14189605Y15240000D01*
X14909016Y14520590D01*
X15139611Y14576271D01*
X15212560Y14785902D01*
X15212560Y14590000D01*
X15256838Y14354683D01*
X15395910Y14138559D01*
X15608110Y13993569D01*
X15860000Y13942560D01*
X17160000Y13942560D01*
X17395317Y13986838D01*
X17611441Y14125910D01*
X17756431Y14338110D01*
X17807440Y14590000D01*
X17807440Y15788482D01*
X22673449Y10922473D01*
X22590000Y10797582D01*
X22334698Y11179668D01*
X21869151Y11490737D01*
X21320000Y11599970D01*
X20770849Y11490737D01*
X20305302Y11179668D01*
X19994233Y10714121D01*
X19885000Y10164970D01*
X19885000Y9674078D01*
X19405722Y9194800D01*
X18323103Y9194800D01*
X18219090Y9356441D01*
X18006890Y9501431D01*
X17755000Y9552440D01*
X16455000Y9552440D01*
X16219683Y9508162D01*
X16003559Y9369090D01*
X15858569Y9156890D01*
X15807560Y8905000D01*
X15807560Y7605000D01*
X15851838Y7369683D01*
X15968659Y7188137D01*
X14800322Y6019800D01*
X12166343Y6019800D01*
X11722073Y6464846D01*
X11121547Y6714206D01*
X10471306Y6714774D01*
X9870345Y6466462D01*
X9410154Y6007073D01*
X9160794Y5406547D01*
X9160226Y4756306D01*
X9408538Y4155345D01*
X9867927Y3695154D01*
X10468453Y3445794D01*
X11118694Y3445226D01*
X11719655Y3693538D01*
X12167097Y4140200D01*
X15189600Y4140200D01*
X15549246Y4211738D01*
X15854139Y4415461D01*
X17769539Y6330861D01*
X17973262Y6635754D01*
X18044800Y6995400D01*
X18044800Y7036897D01*
X18206441Y7140910D01*
X18325528Y7315200D01*
X19795000Y7315200D01*
X20154646Y7386738D01*
X20459539Y7590461D01*
X20910552Y8041474D01*
X21320000Y7960030D01*
X21813847Y8058262D01*
X21796197Y8015756D01*
X21795803Y7564225D01*
X21968233Y7146914D01*
X22287235Y6827355D01*
X22704244Y6654197D01*
X23155775Y6653803D01*
X23290430Y6709441D01*
X23310161Y6239540D01*
X23494357Y5794852D01*
X23750841Y5708446D01*
X24651395Y6609000D01*
X24637253Y6623142D01*
X24816858Y6802747D01*
X24831000Y6788605D01*
X24845143Y6802747D01*
X25024748Y6623142D01*
X25010605Y6609000D01*
X25911159Y5708446D01*
X26167643Y5794852D01*
X26219009Y5935249D01*
X26511839Y5641907D01*
X27204405Y5354328D01*
X27954305Y5353674D01*
X28647372Y5640043D01*
X28938218Y5930382D01*
X28994357Y5794852D01*
X29250841Y5708446D01*
X30151395Y6609000D01*
X30137253Y6623142D01*
X30316858Y6802747D01*
X30331000Y6788605D01*
X30345143Y6802747D01*
X30524748Y6623142D01*
X30510605Y6609000D01*
X31411159Y5708446D01*
X31667643Y5794852D01*
X31763824Y6057742D01*
X33579283Y4242283D01*
X33639981Y4201726D01*
X33540154Y4102073D01*
X33290794Y3501547D01*
X33290226Y2851306D01*
X33538538Y2250345D01*
X33875295Y1913000D01*
X28720456Y1913000D01*
X29178093Y2369839D01*
X29377907Y2851043D01*
X29460357Y2768449D01*
X30024330Y2534267D01*
X30634991Y2533735D01*
X31199371Y2766932D01*
X31631551Y3198357D01*
X31865733Y3762330D01*
X31866265Y4372991D01*
X31633068Y4937371D01*
X31201643Y5369551D01*
X31180806Y5378203D01*
X31231554Y5528841D01*
X30331000Y6429395D01*
X29430446Y5528841D01*
X29481035Y5378673D01*
X29462629Y5371068D01*
X29030449Y4939643D01*
X28947018Y4738718D01*
X28650161Y5036093D01*
X27957595Y5323672D01*
X27207695Y5324326D01*
X26514628Y5037957D01*
X26215067Y4738918D01*
X26133068Y4937371D01*
X25701643Y5369551D01*
X25680806Y5378203D01*
X25731554Y5528841D01*
X24831000Y6429395D01*
X23930446Y5528841D01*
X23981035Y5378673D01*
X23962629Y5371068D01*
X23530449Y4939643D01*
X23516977Y4907200D01*
X22589340Y4907200D01*
X22589774Y5403694D01*
X22341462Y6004655D01*
X21882073Y6464846D01*
X21281547Y6714206D01*
X20631306Y6714774D01*
X20030345Y6466462D01*
X19570154Y6007073D01*
X19320794Y5406547D01*
X19320226Y4756306D01*
X19568538Y4155345D01*
X20027927Y3695154D01*
X20628453Y3445794D01*
X21278694Y3445226D01*
X21367632Y3481974D01*
X21373303Y3476303D01*
X21645235Y3294604D01*
X21966000Y3230800D01*
X23516466Y3230800D01*
X23528932Y3200629D01*
X23960357Y2768449D01*
X24524330Y2534267D01*
X25134991Y2533735D01*
X25699371Y2766932D01*
X25784151Y2851564D01*
X25982043Y2372628D01*
X26440870Y1913000D01*
X6573670Y1913000D01*
X5893929Y1979985D01*
X5272632Y2168429D01*
X4700122Y2474413D01*
X4198285Y2886304D01*
X3786429Y3388114D01*
X3480399Y3960694D01*
X3291948Y4581979D01*
X3225000Y5261654D01*
X3225000Y5295165D01*
X4258291Y5295165D01*
X4264904Y5228000D01*
X4258291Y5160835D01*
X4289041Y4848735D01*
X4308620Y4784200D01*
X4315227Y4717084D01*
X4406277Y4416884D01*
X4438092Y4357357D01*
X4457687Y4292769D01*
X4605547Y4016169D01*
X4648317Y3964058D01*
X4680090Y3904599D01*
X4879060Y3662099D01*
X4931288Y3619227D01*
X4974167Y3567000D01*
X5216627Y3368100D01*
X5276037Y3336360D01*
X5328099Y3293623D01*
X5604720Y3145723D01*
X5669369Y3126103D01*
X5728954Y3094266D01*
X6029104Y3003266D01*
X6096134Y2996674D01*
X6160587Y2977110D01*
X6472737Y2946310D01*
X6540005Y2952923D01*
X6607267Y2946311D01*
X6919397Y2977111D01*
X6983843Y2996673D01*
X7050870Y3003264D01*
X7351030Y3094264D01*
X7410623Y3126105D01*
X7475280Y3145728D01*
X7751890Y3293628D01*
X7803947Y3336362D01*
X7863353Y3368100D01*
X8105813Y3567000D01*
X8148688Y3619222D01*
X8200909Y3662086D01*
X8399889Y3904586D01*
X8431667Y3964051D01*
X8474443Y4016169D01*
X8622303Y4292769D01*
X8641901Y4357367D01*
X8673719Y4416904D01*
X8764759Y4717104D01*
X8771363Y4784210D01*
X8790939Y4848735D01*
X8821689Y5160835D01*
X8815076Y5228000D01*
X8821689Y5295165D01*
X8790939Y5607265D01*
X8771363Y5671790D01*
X8764759Y5738896D01*
X8673719Y6039096D01*
X8641901Y6098633D01*
X8622303Y6163231D01*
X8474443Y6439831D01*
X8431667Y6491949D01*
X8399889Y6551414D01*
X8200909Y6793914D01*
X8148751Y6836726D01*
X8105943Y6888893D01*
X7863483Y7087893D01*
X7803926Y7119730D01*
X7751720Y7162562D01*
X7475110Y7310362D01*
X7410640Y7329909D01*
X7361874Y7355984D01*
X11385590Y7355984D01*
X11441271Y7125389D01*
X11924078Y6957378D01*
X12434428Y6986917D01*
X12768729Y7125389D01*
X12824410Y7355984D01*
X12105000Y8075395D01*
X11385590Y7355984D01*
X7361874Y7355984D01*
X7351230Y7361675D01*
X7051070Y7452775D01*
X6983834Y7459407D01*
X6919176Y7479011D01*
X6607026Y7509711D01*
X6539975Y7503097D01*
X6472929Y7509710D01*
X6160799Y7479011D01*
X6096141Y7459406D01*
X6028904Y7452774D01*
X5728754Y7361673D01*
X5669355Y7329912D01*
X5604890Y7310368D01*
X5328269Y7162567D01*
X5276055Y7119730D01*
X5216497Y7087892D01*
X4974037Y6888893D01*
X4931225Y6836721D01*
X4879060Y6793901D01*
X4680090Y6551401D01*
X4648317Y6491942D01*
X4605547Y6439831D01*
X4457687Y6163231D01*
X4438092Y6098643D01*
X4406277Y6039116D01*
X4315227Y5738916D01*
X4308620Y5671800D01*
X4289041Y5607265D01*
X4258291Y5295165D01*
X3225000Y5295165D01*
X3225000Y8435922D01*
X10807378Y8435922D01*
X10836917Y7925572D01*
X10975389Y7591271D01*
X11205984Y7535590D01*
X11925395Y8255000D01*
X12284605Y8255000D01*
X13004016Y7535590D01*
X13234611Y7591271D01*
X13402622Y8074078D01*
X13373083Y8584428D01*
X13234611Y8918729D01*
X13004016Y8974410D01*
X12284605Y8255000D01*
X11925395Y8255000D01*
X11205984Y8974410D01*
X10975389Y8918729D01*
X10807378Y8435922D01*
X3225000Y8435922D01*
X3225000Y9154016D01*
X11385590Y9154016D01*
X12105000Y8434605D01*
X12824410Y9154016D01*
X12768729Y9384611D01*
X12285922Y9552622D01*
X11775572Y9523083D01*
X11441271Y9384611D01*
X11385590Y9154016D01*
X3225000Y9154016D01*
X3225000Y12414250D01*
X7239000Y12414250D01*
X7239000Y11557691D01*
X7335673Y11324302D01*
X7514301Y11145673D01*
X7747690Y11049000D01*
X8604250Y11049000D01*
X8763000Y11207750D01*
X8763000Y12573000D01*
X9017000Y12573000D01*
X9017000Y11207750D01*
X9175750Y11049000D01*
X10032310Y11049000D01*
X10265699Y11145673D01*
X10444327Y11324302D01*
X10541000Y11557691D01*
X10541000Y12414250D01*
X10382250Y12573000D01*
X9017000Y12573000D01*
X8763000Y12573000D01*
X7397750Y12573000D01*
X7239000Y12414250D01*
X3225000Y12414250D01*
X3225000Y13842309D01*
X7239000Y13842309D01*
X7239000Y12985750D01*
X7397750Y12827000D01*
X8763000Y12827000D01*
X8763000Y14192250D01*
X9017000Y14192250D01*
X9017000Y12827000D01*
X10382250Y12827000D01*
X10541000Y12985750D01*
X10541000Y13842309D01*
X10444327Y14075698D01*
X10265699Y14254327D01*
X10056491Y14340984D01*
X13290590Y14340984D01*
X13346271Y14110389D01*
X13829078Y13942378D01*
X14339428Y13971917D01*
X14673729Y14110389D01*
X14729410Y14340984D01*
X14010000Y15060395D01*
X13290590Y14340984D01*
X10056491Y14340984D01*
X10032310Y14351000D01*
X9175750Y14351000D01*
X9017000Y14192250D01*
X8763000Y14192250D01*
X8604250Y14351000D01*
X7747690Y14351000D01*
X7514301Y14254327D01*
X7335673Y14075698D01*
X7239000Y13842309D01*
X3225000Y13842309D01*
X3225000Y15420922D01*
X12712378Y15420922D01*
X12741917Y14910572D01*
X12880389Y14576271D01*
X13110984Y14520590D01*
X13830395Y15240000D01*
X13110984Y15959410D01*
X12880389Y15903729D01*
X12712378Y15420922D01*
X3225000Y15420922D01*
X3225000Y17034250D01*
X5394000Y17034250D01*
X5394000Y16443691D01*
X5490673Y16210302D01*
X5669301Y16031673D01*
X5902690Y15935000D01*
X6493250Y15935000D01*
X6652000Y16093750D01*
X6652000Y17193000D01*
X5552750Y17193000D01*
X5394000Y17034250D01*
X3225000Y17034250D01*
X3225000Y37091759D01*
X9544994Y37091759D01*
X9831314Y36398809D01*
X10361021Y35868178D01*
X11053469Y35580648D01*
X11803241Y35579994D01*
X12496191Y35866314D01*
X12570360Y35940354D01*
X14727341Y35940354D01*
X14846695Y35687000D01*
X16891000Y35687000D01*
X16891000Y37194490D01*
X17145000Y37194490D01*
X17145000Y35687000D01*
X19189305Y35687000D01*
X19308659Y35940354D01*
X19277713Y36068159D01*
X18964602Y36625956D01*
X18461865Y37021471D01*
X17846040Y37194490D01*
X17145000Y37194490D01*
X16891000Y37194490D01*
X16189960Y37194490D01*
X15574135Y37021471D01*
X15071398Y36625956D01*
X14758287Y36068159D01*
X14727341Y35940354D01*
X12570360Y35940354D01*
X13026822Y36396021D01*
X13314352Y37088469D01*
X13315006Y37838241D01*
X13293846Y37889452D01*
X13331161Y37926767D01*
X13598508Y37748132D01*
X14224000Y37623714D01*
X14849492Y37748132D01*
X15379759Y38102445D01*
X15734072Y38632712D01*
X15858490Y39258204D01*
X15858490Y39878000D01*
X18884900Y39878000D01*
X18884900Y38478460D01*
X19042741Y37938938D01*
X19395033Y37500888D01*
X19888143Y37230999D01*
X19970945Y37213457D01*
X20193000Y37335444D01*
X20193000Y39878000D01*
X20447000Y39878000D01*
X20447000Y37335444D01*
X20669055Y37213457D01*
X20751857Y37230999D01*
X21244967Y37500888D01*
X21597259Y37938938D01*
X21755100Y38478460D01*
X21755100Y39878000D01*
X20447000Y39878000D01*
X20193000Y39878000D01*
X18884900Y39878000D01*
X15858490Y39878000D01*
X15858490Y40751796D01*
X15826367Y40913289D01*
X17407278Y42494200D01*
X19383040Y42494200D01*
X19042741Y42071062D01*
X18884900Y41531540D01*
X18884900Y40132000D01*
X20193000Y40132000D01*
X20193000Y40152000D01*
X20447000Y40152000D01*
X20447000Y40132000D01*
X21755100Y40132000D01*
X21755100Y41531540D01*
X21597259Y42071062D01*
X21256960Y42494200D01*
X22470722Y42494200D01*
X22663546Y42301376D01*
X22606332Y42163590D01*
X22605670Y41405735D01*
X22895078Y40705314D01*
X23430495Y40168961D01*
X24130410Y39878332D01*
X24888265Y39877670D01*
X25588686Y40167078D01*
X26125039Y40702495D01*
X26415668Y41402410D01*
X26416330Y42160265D01*
X26126922Y42860686D01*
X25591505Y43397039D01*
X24891590Y43687668D01*
X24133735Y43688330D01*
X23992928Y43630150D01*
X23888078Y43735000D01*
X31939857Y43735000D01*
X31939857Y47295046D01*
X46258289Y47295046D01*
X46264902Y47228000D01*
X46258289Y47160949D01*
X46288989Y46848820D01*
X46308593Y46784163D01*
X46315225Y46716930D01*
X46406325Y46416770D01*
X46438091Y46357360D01*
X46457638Y46292890D01*
X46605438Y46016280D01*
X46648270Y45964074D01*
X46680107Y45904517D01*
X46879107Y45662057D01*
X46931274Y45619249D01*
X46974086Y45567091D01*
X47216586Y45368111D01*
X47276051Y45336333D01*
X47328169Y45293557D01*
X47604769Y45145697D01*
X47669367Y45126099D01*
X47728904Y45094281D01*
X48029104Y45003241D01*
X48096210Y44996637D01*
X48160735Y44977061D01*
X48472835Y44946311D01*
X48540000Y44952924D01*
X48607165Y44946311D01*
X48919265Y44977061D01*
X48983790Y44996637D01*
X49050896Y45003241D01*
X49351096Y45094281D01*
X49410633Y45126099D01*
X49475231Y45145697D01*
X49751831Y45293557D01*
X49803949Y45336333D01*
X49863414Y45368111D01*
X50105915Y45567091D01*
X50148781Y45619314D01*
X50201000Y45662187D01*
X50399900Y45904647D01*
X50431638Y45964053D01*
X50474372Y46016110D01*
X50622272Y46292720D01*
X50641895Y46357377D01*
X50673736Y46416970D01*
X50764736Y46717130D01*
X50771327Y46784157D01*
X50790889Y46848603D01*
X50821689Y47160733D01*
X50815077Y47227995D01*
X50821690Y47295263D01*
X50790890Y47607413D01*
X50771326Y47671866D01*
X50764734Y47738896D01*
X50673734Y48039046D01*
X50641897Y48098631D01*
X50622277Y48163280D01*
X50474377Y48439901D01*
X50431640Y48491963D01*
X50399900Y48551373D01*
X50201000Y48793833D01*
X50148773Y48836712D01*
X50105901Y48888940D01*
X49863401Y49087910D01*
X49803942Y49119683D01*
X49751831Y49162453D01*
X49475231Y49310313D01*
X49410643Y49329908D01*
X49351116Y49361723D01*
X49050916Y49452773D01*
X48983800Y49459380D01*
X48919265Y49478959D01*
X48607165Y49509709D01*
X48540000Y49503096D01*
X48472835Y49509709D01*
X48160735Y49478959D01*
X48096200Y49459380D01*
X48029084Y49452773D01*
X47728884Y49361723D01*
X47669357Y49329908D01*
X47604769Y49310313D01*
X47328169Y49162453D01*
X47276058Y49119683D01*
X47216599Y49087910D01*
X46974099Y48888940D01*
X46931280Y48836776D01*
X46879107Y48793963D01*
X46680107Y48551503D01*
X46648268Y48491942D01*
X46605433Y48439731D01*
X46457633Y48163111D01*
X46438089Y48098647D01*
X46406327Y48039246D01*
X46315227Y47739096D01*
X46308594Y47671858D01*
X46288989Y47607196D01*
X46258289Y47295046D01*
X31939857Y47295046D01*
X31939857Y47555000D01*
X20384144Y47555000D01*
X20384144Y44373800D01*
X17018000Y44373800D01*
X16658354Y44302262D01*
X16353461Y44098539D01*
X14571989Y42317067D01*
X14224000Y42386286D01*
X13598508Y42261868D01*
X13314680Y42072220D01*
X13314680Y42259250D01*
X13155930Y42418000D01*
X11557000Y42418000D01*
X11557000Y40819070D01*
X11715750Y40660320D01*
X12589510Y40660320D01*
X12589510Y39555904D01*
X12213832Y39180226D01*
X11806531Y39349352D01*
X11056759Y39350006D01*
X10363809Y39063686D01*
X9833178Y38533979D01*
X9545648Y37841531D01*
X9544994Y37091759D01*
X3225000Y37091759D01*
X3225000Y42259250D01*
X9545320Y42259250D01*
X9545320Y41169011D01*
X9641993Y40935622D01*
X9820621Y40756993D01*
X10054010Y40660320D01*
X11144250Y40660320D01*
X11303000Y40819070D01*
X11303000Y42418000D01*
X9704070Y42418000D01*
X9545320Y42259250D01*
X3225000Y42259250D01*
X3225000Y43920989D01*
X9545320Y43920989D01*
X9545320Y42830750D01*
X9704070Y42672000D01*
X11303000Y42672000D01*
X11303000Y44270930D01*
X11557000Y44270930D01*
X11557000Y42672000D01*
X13155930Y42672000D01*
X13314680Y42830750D01*
X13314680Y43920989D01*
X13218007Y44154378D01*
X13039379Y44333007D01*
X12805990Y44429680D01*
X11715750Y44429680D01*
X11557000Y44270930D01*
X11303000Y44270930D01*
X11144250Y44429680D01*
X10054010Y44429680D01*
X9820621Y44333007D01*
X9641993Y44154378D01*
X9545320Y43920989D01*
X3225000Y43920989D01*
X3225000Y47194343D01*
X3234929Y47295155D01*
X4258290Y47295155D01*
X4264903Y47228001D01*
X4258290Y47160841D01*
X4289040Y46848711D01*
X4308623Y46784161D01*
X4315234Y46717030D01*
X4406284Y46416870D01*
X4438093Y46357359D01*
X4457682Y46292788D01*
X4605542Y46016178D01*
X4648332Y45964041D01*
X4680125Y45904556D01*
X4879095Y45662096D01*
X4931256Y45619286D01*
X4974063Y45567126D01*
X5216523Y45368146D01*
X5276018Y45336345D01*
X5328167Y45293547D01*
X5604787Y45145687D01*
X5669361Y45126098D01*
X5728874Y45094290D01*
X6029024Y45003250D01*
X6096150Y44996641D01*
X6160695Y44977060D01*
X6472846Y44946310D01*
X6540000Y44952923D01*
X6607159Y44946310D01*
X6919289Y44977060D01*
X6983830Y44996640D01*
X7050950Y45003248D01*
X7351110Y45094288D01*
X7410631Y45126100D01*
X7475212Y45145692D01*
X7751822Y45293552D01*
X7803966Y45336348D01*
X7863457Y45368146D01*
X8105917Y45567126D01*
X8148719Y45619281D01*
X8200874Y45662083D01*
X8399854Y45904543D01*
X8431652Y45964034D01*
X8474448Y46016178D01*
X8622308Y46292788D01*
X8641900Y46357369D01*
X8673712Y46416890D01*
X8764752Y46717050D01*
X8771360Y46784171D01*
X8790940Y46848711D01*
X8821690Y47160841D01*
X8815077Y47228000D01*
X8821690Y47295154D01*
X8790940Y47607305D01*
X8771359Y47671850D01*
X8764750Y47738976D01*
X8673710Y48039126D01*
X8641902Y48098639D01*
X8622313Y48163213D01*
X8474453Y48439833D01*
X8431655Y48491982D01*
X8399854Y48551477D01*
X8200874Y48793937D01*
X8148714Y48836744D01*
X8105904Y48888905D01*
X7863444Y49087875D01*
X7803959Y49119668D01*
X7751822Y49162458D01*
X7475212Y49310318D01*
X7410641Y49329907D01*
X7351130Y49361716D01*
X7050970Y49452766D01*
X6983835Y49459378D01*
X6919285Y49478960D01*
X6607135Y49509710D01*
X6539980Y49503097D01*
X6472821Y49509710D01*
X6160691Y49478960D01*
X6096137Y49459376D01*
X6029004Y49452764D01*
X5728854Y49361714D01*
X5669351Y49329909D01*
X5604787Y49310323D01*
X5328167Y49162463D01*
X5276025Y49119670D01*
X5216536Y49087875D01*
X4974076Y48888905D01*
X4931262Y48836738D01*
X4879095Y48793924D01*
X4680125Y48551464D01*
X4648330Y48491975D01*
X4605537Y48439833D01*
X4457677Y48163213D01*
X4438091Y48098649D01*
X4406286Y48039146D01*
X4315236Y47738996D01*
X4308624Y47671860D01*
X4289040Y47607305D01*
X4258290Y47295155D01*
X3234929Y47295155D01*
X3291949Y47874087D01*
X3480395Y48495345D01*
X3786427Y49067878D01*
X4198281Y49569718D01*
X4700125Y49981575D01*
X5272655Y50287605D01*
X5893919Y50476052D01*
X6573630Y50543000D01*
X48506346Y50543000D01*
X49186021Y50476052D01*
G36*
X47125222Y33965300D02*
X47013569Y33801890D01*
X46962560Y33550000D01*
X46962560Y32250000D01*
X47006838Y32014683D01*
X47123659Y31833137D01*
X46521651Y31231129D01*
X46317928Y30926236D01*
X46246390Y30566590D01*
X46246390Y11235068D01*
X43859413Y8848091D01*
X37886207Y8848091D01*
X37995000Y9395030D01*
X37995000Y10164970D01*
X37939108Y10445961D01*
X39533096Y10445961D01*
X39550633Y10363181D01*
X39820500Y9870104D01*
X40258517Y9517834D01*
X40798000Y9360000D01*
X41148000Y9360000D01*
X41148000Y10668000D01*
X41402000Y10668000D01*
X41402000Y9360000D01*
X41752000Y9360000D01*
X42291483Y9517834D01*
X42729500Y9870104D01*
X42999367Y10363181D01*
X43016904Y10445961D01*
X42894915Y10668000D01*
X41402000Y10668000D01*
X41148000Y10668000D01*
X39655085Y10668000D01*
X39533096Y10445961D01*
X37939108Y10445961D01*
X37885767Y10714121D01*
X37574698Y11179668D01*
X37109151Y11490737D01*
X36948155Y11522761D01*
X40121327Y14695933D01*
X40257418Y14605000D01*
X39875332Y14349698D01*
X39564263Y13884151D01*
X39455030Y13335000D01*
X39564263Y12785849D01*
X39875332Y12320302D01*
X40253151Y12067851D01*
X39820500Y11719896D01*
X39550633Y11226819D01*
X39533096Y11144039D01*
X39655085Y10922000D01*
X41148000Y10922000D01*
X41148000Y10942000D01*
X41402000Y10942000D01*
X41402000Y10922000D01*
X42894915Y10922000D01*
X43016904Y11144039D01*
X42999367Y11226819D01*
X42729500Y11719896D01*
X42296849Y12067851D01*
X42674668Y12320302D01*
X42985737Y12785849D01*
X43094970Y13335000D01*
X42985737Y13884151D01*
X42674668Y14349698D01*
X42292582Y14605000D01*
X42674668Y14860302D01*
X42985737Y15325849D01*
X43094970Y15875000D01*
X42985737Y16424151D01*
X42674668Y16889698D01*
X42292582Y17145000D01*
X42674668Y17400302D01*
X42985737Y17865849D01*
X43094970Y18415000D01*
X42985737Y18964151D01*
X42674668Y19429698D01*
X42292582Y19685000D01*
X42674668Y19940302D01*
X42985737Y20405849D01*
X43094970Y20955000D01*
X42985737Y21504151D01*
X42674668Y21969698D01*
X42292582Y22225000D01*
X42674668Y22480302D01*
X42985737Y22945849D01*
X43094970Y23495000D01*
X42985737Y24044151D01*
X42674668Y24509698D01*
X42292582Y24765000D01*
X42674668Y25020302D01*
X42985737Y25485849D01*
X43094970Y26035000D01*
X42985737Y26584151D01*
X42674668Y27049698D01*
X42292582Y27305000D01*
X42674668Y27560302D01*
X42985737Y28025849D01*
X43094970Y28575000D01*
X42985737Y29124151D01*
X42674668Y29589698D01*
X42209121Y29900767D01*
X41659970Y30010000D01*
X40923678Y30010000D01*
X43844539Y32930861D01*
X44048262Y33235754D01*
X44119800Y33595400D01*
X44119800Y33785218D01*
X44426730Y33990302D01*
X44476775Y34065200D01*
X47025322Y34065200D01*
X47125222Y33965300D01*
X47125222Y33965300D01*
G37*
X47125222Y33965300D02*
X47013569Y33801890D01*
X46962560Y33550000D01*
X46962560Y32250000D01*
X47006838Y32014683D01*
X47123659Y31833137D01*
X46521651Y31231129D01*
X46317928Y30926236D01*
X46246390Y30566590D01*
X46246390Y11235068D01*
X43859413Y8848091D01*
X37886207Y8848091D01*
X37995000Y9395030D01*
X37995000Y10164970D01*
X37939108Y10445961D01*
X39533096Y10445961D01*
X39550633Y10363181D01*
X39820500Y9870104D01*
X40258517Y9517834D01*
X40798000Y9360000D01*
X41148000Y9360000D01*
X41148000Y10668000D01*
X41402000Y10668000D01*
X41402000Y9360000D01*
X41752000Y9360000D01*
X42291483Y9517834D01*
X42729500Y9870104D01*
X42999367Y10363181D01*
X43016904Y10445961D01*
X42894915Y10668000D01*
X41402000Y10668000D01*
X41148000Y10668000D01*
X39655085Y10668000D01*
X39533096Y10445961D01*
X37939108Y10445961D01*
X37885767Y10714121D01*
X37574698Y11179668D01*
X37109151Y11490737D01*
X36948155Y11522761D01*
X40121327Y14695933D01*
X40257418Y14605000D01*
X39875332Y14349698D01*
X39564263Y13884151D01*
X39455030Y13335000D01*
X39564263Y12785849D01*
X39875332Y12320302D01*
X40253151Y12067851D01*
X39820500Y11719896D01*
X39550633Y11226819D01*
X39533096Y11144039D01*
X39655085Y10922000D01*
X41148000Y10922000D01*
X41148000Y10942000D01*
X41402000Y10942000D01*
X41402000Y10922000D01*
X42894915Y10922000D01*
X43016904Y11144039D01*
X42999367Y11226819D01*
X42729500Y11719896D01*
X42296849Y12067851D01*
X42674668Y12320302D01*
X42985737Y12785849D01*
X43094970Y13335000D01*
X42985737Y13884151D01*
X42674668Y14349698D01*
X42292582Y14605000D01*
X42674668Y14860302D01*
X42985737Y15325849D01*
X43094970Y15875000D01*
X42985737Y16424151D01*
X42674668Y16889698D01*
X42292582Y17145000D01*
X42674668Y17400302D01*
X42985737Y17865849D01*
X43094970Y18415000D01*
X42985737Y18964151D01*
X42674668Y19429698D01*
X42292582Y19685000D01*
X42674668Y19940302D01*
X42985737Y20405849D01*
X43094970Y20955000D01*
X42985737Y21504151D01*
X42674668Y21969698D01*
X42292582Y22225000D01*
X42674668Y22480302D01*
X42985737Y22945849D01*
X43094970Y23495000D01*
X42985737Y24044151D01*
X42674668Y24509698D01*
X42292582Y24765000D01*
X42674668Y25020302D01*
X42985737Y25485849D01*
X43094970Y26035000D01*
X42985737Y26584151D01*
X42674668Y27049698D01*
X42292582Y27305000D01*
X42674668Y27560302D01*
X42985737Y28025849D01*
X43094970Y28575000D01*
X42985737Y29124151D01*
X42674668Y29589698D01*
X42209121Y29900767D01*
X41659970Y30010000D01*
X40923678Y30010000D01*
X43844539Y32930861D01*
X44048262Y33235754D01*
X44119800Y33595400D01*
X44119800Y33785218D01*
X44426730Y33990302D01*
X44476775Y34065200D01*
X47025322Y34065200D01*
X47125222Y33965300D01*
G36*
X36677601Y24371040D02*
X35331400Y24371040D01*
X35096083Y24326762D01*
X34879959Y24187690D01*
X34734969Y23975490D01*
X34726136Y23931869D01*
X34714670Y23949029D01*
X34228489Y24273885D01*
X33655000Y24387959D01*
X33081511Y24273885D01*
X32595330Y23949029D01*
X32385000Y23634248D01*
X32174670Y23949029D01*
X31688489Y24273885D01*
X31115000Y24387959D01*
X30541511Y24273885D01*
X30055330Y23949029D01*
X29730474Y23462848D01*
X29616400Y22889359D01*
X29616400Y22830641D01*
X29730474Y22257152D01*
X30055330Y21770971D01*
X30326161Y21590008D01*
X29908179Y21208490D01*
X29660032Y20679027D01*
X29780531Y20447000D01*
X30988000Y20447000D01*
X30988000Y20467000D01*
X31242000Y20467000D01*
X31242000Y20447000D01*
X31262000Y20447000D01*
X31262000Y20193000D01*
X31242000Y20193000D01*
X31242000Y20173000D01*
X30988000Y20173000D01*
X30988000Y20193000D01*
X29780531Y20193000D01*
X29660032Y19960973D01*
X29908179Y19431510D01*
X30340053Y19037312D01*
X30636932Y18914348D01*
X30465302Y18799668D01*
X30210000Y18417582D01*
X29954698Y18799668D01*
X29489151Y19110737D01*
X28940000Y19219970D01*
X28754922Y19183156D01*
X27990800Y19947278D01*
X27990800Y23197349D01*
X28130313Y23533332D01*
X28130687Y23962784D01*
X27966689Y24359689D01*
X27663286Y24663622D01*
X27541481Y24714200D01*
X36677601Y24714200D01*
X36677601Y24371040D01*
X36677601Y24371040D01*
G37*
X36677601Y24371040D02*
X35331400Y24371040D01*
X35096083Y24326762D01*
X34879959Y24187690D01*
X34734969Y23975490D01*
X34726136Y23931869D01*
X34714670Y23949029D01*
X34228489Y24273885D01*
X33655000Y24387959D01*
X33081511Y24273885D01*
X32595330Y23949029D01*
X32385000Y23634248D01*
X32174670Y23949029D01*
X31688489Y24273885D01*
X31115000Y24387959D01*
X30541511Y24273885D01*
X30055330Y23949029D01*
X29730474Y23462848D01*
X29616400Y22889359D01*
X29616400Y22830641D01*
X29730474Y22257152D01*
X30055330Y21770971D01*
X30326161Y21590008D01*
X29908179Y21208490D01*
X29660032Y20679027D01*
X29780531Y20447000D01*
X30988000Y20447000D01*
X30988000Y20467000D01*
X31242000Y20467000D01*
X31242000Y20447000D01*
X31262000Y20447000D01*
X31262000Y20193000D01*
X31242000Y20193000D01*
X31242000Y20173000D01*
X30988000Y20173000D01*
X30988000Y20193000D01*
X29780531Y20193000D01*
X29660032Y19960973D01*
X29908179Y19431510D01*
X30340053Y19037312D01*
X30636932Y18914348D01*
X30465302Y18799668D01*
X30210000Y18417582D01*
X29954698Y18799668D01*
X29489151Y19110737D01*
X28940000Y19219970D01*
X28754922Y19183156D01*
X27990800Y19947278D01*
X27990800Y23197349D01*
X28130313Y23533332D01*
X28130687Y23962784D01*
X27966689Y24359689D01*
X27663286Y24663622D01*
X27541481Y24714200D01*
X36677601Y24714200D01*
X36677601Y24371040D01*
M02*
